<?xml version="1.0"?>
<svg xmlns="http://www.w3.org/2000/svg" xmlns:xlink="http://www.w3.org/1999/xlink" data-noselect="" viewBox="0 0 900 383" width="900" height="383" preserveAspectRatio="none" version="1.1" class="svg-canvas"><defs><filter id="filter_shadow_shape_UVjmto23y6" width="300%" height="300%" x="-100%" y="-100%">
              <feDropShadow dx="0" dy="0" stdDeviation="16.8920335039404" flood-color="#FFFFFF" flood-opacity="1"/>
            </filter></defs> <g id="background" data-noselect=""><rect fill="#000000" width="900" height="383" data-noselect=""/> <!----></g> <g id="shape_mgMTNFwhIn" transform="translate(398.17616245723,-92.02093861916755) rotate(0,287.05554650371,287.05554650371) scale(1,1)" filter="" style="opacity: 0.39;"><g><svg xmlns="http://www.w3.org/2000/svg" xmlns:xlink="http://www.w3.org/1999/xlink" width="574.1110930074101" height="574.1110930074101" viewBox="1.6632235324747409 1.6632235324747409 96.67355293505052 96.67355293505052" version="1.1" class="style-removed" preserveAspectRatio="none" data-parent="shape_mgMTNFwhIn">
    <title>&#x6B63;&#x5706;</title>
    <g id="&#x7F16;&#x8F91;&#x5668;_bZlZj6V3nb" stroke="none" stroke-width="1" fill="none" fill-rule="evenodd">
        <g id="&#x753B;&#x677F;_RxnmJ9fwcb" transform="translate(-517.000000, -122.000000)" stroke="#000000" stroke-width="4">
            <circle id="&#x6B63;&#x5706;_fyODmJTBk4" cx="567" cy="172" r="48" stroke="#ffe8bb" stroke-width="0.16838823376262957" stroke-dasharray=""/>
        </g>
    </g>
</svg></g></g><g id="shape_Y1Ge4NPhe5" transform="translate(491.71978798699,1.5226491496939527) rotate(0,193.51195118267,193.51195118267) scale(1,1)" filter="" style="opacity: 0.39;"><g><svg xmlns="http://www.w3.org/2000/svg" xmlns:xlink="http://www.w3.org/1999/xlink" width="387.02390236533" height="387.02390236533" viewBox="1.4987258006241357 1.4987258006241357 97.00254839875173 97.00254839875173" version="1.1" class="style-removed" preserveAspectRatio="none" data-parent="shape_Y1Ge4NPhe5">
    <title>&#x6B63;&#x5706;</title>
    <g id="&#x7F16;&#x8F91;&#x5668;_bZlZj6V3nb" stroke="none" stroke-width="1" fill="none" fill-rule="evenodd">
        <g id="&#x753B;&#x677F;_RxnmJ9fwcb" transform="translate(-517.000000, -122.000000)" stroke="#000000" stroke-width="4">
            <circle id="&#x6B63;&#x5706;_fyODmJTBk4" cx="567" cy="172" r="48" stroke="#ffe8bb" stroke-width="0.25063709968793213" stroke-dasharray=""/>
        </g>
    </g>
</svg></g></g><g id="shape_v26fidZO1b" transform="translate(496.4419561048,6.244817267502053) rotate(0,188.78978306486,188.78978306486) scale(1,1)" filter="" style="opacity: 1;"><g><svg xmlns="http://www.w3.org/2000/svg" xmlns:xlink="http://www.w3.org/1999/xlink" version="1.1" id="&#x56FE;&#x5C42;_1" x="0px" y="0px" width="377.57956612971" height="377.57956612971" viewBox="2 2 197 197" style="enable-background:new 0 0 200 200;" xml:space="preserve" class="style-removed" preserveAspectRatio="none" data-parent="shape_v26fidZO1b">

<g>
	<radialGradient id="SVGID_1__JG6x22QtnL" cx="100.5" cy="100.5" r="98.5" gradientUnits="userSpaceOnUse">
		<stop offset="0" stop-color="#ffe8bb"/>
		<stop offset="0.8481" stop-color="#ffe8bb" stop-opacity="0.1325"/>
		<stop offset="0.9777" stop-color="#ffe8bb" stop-opacity="0"/>
	</radialGradient>
	<circle cx="100.5" cy="100.5" r="98.5" fill="url(#SVGID_1__JG6x22QtnL)" stroke-width="0"/>
</g>
</svg></g></g><g id="shape_qbX2mJtdVw" transform="translate(557.30158484408,66.946936024003) rotate(0,127.93012411685,127.93012411685) scale(1,1)" filter="" style="opacity: 0.23;"><g><svg xmlns="http://www.w3.org/2000/svg" xmlns:xlink="http://www.w3.org/1999/xlink" version="1.1" id="&#x56FE;&#x5C42;_1" x="0px" y="0px" width="255.86024823371" height="255.86024823371" viewBox="2 2 197 197" style="enable-background:new 0 0 200 200;" xml:space="preserve" class="style-removed" preserveAspectRatio="none" data-parent="shape_qbX2mJtdVw">

<g>
	<radialGradient id="SVGID_1__F7t2dZZKHb" cx="100.5" cy="100.5" r="98.5" gradientUnits="userSpaceOnUse">
		<stop offset="0" stop-color="#ffffff"/>
		<stop offset="0.8481" stop-color="#ffffff" stop-opacity="0.1325"/>
		<stop offset="0.9777" stop-color="#ffffff" stop-opacity="0"/>
	</radialGradient>
	<circle cx="100.5" cy="100.5" r="98.5" fill="url(#SVGID_1__F7t2dZZKHb)" stroke-width="0"/>
</g>
</svg></g></g><g id="shape_UVjmto23y6" transform="translate(615.70447985975,125.34983103967) rotate(0,69.525658247779,69.525658247779) scale(1,1)" filter="url(#filter_shadow_shape_UVjmto23y6)" style="opacity: 1;"><g><svg xmlns="http://www.w3.org/2000/svg" xmlns:xlink="http://www.w3.org/1999/xlink" version="1.1" id="&#x56FE;&#x5C42;_1" x="0px" y="0px" width="139.05131649556" height="139.05131649556" viewBox="1 1 100 100" style="enable-background:new 0 0 102 102;" xml:space="preserve" class="style-removed" preserveAspectRatio="none" data-parent="shape_UVjmto23y6">
<circle cx="51" cy="51" r="50" fill="#000000" stroke-width="0"/>
</svg></g></g><g id="shape_mcPKvHymMu" transform="translate(615.70447985975,125.34984185075) rotate(0,69.525658247779,69.525658247779) scale(1,1)" filter="" style="opacity: 0.7;"><g><svg xmlns="http://www.w3.org/2000/svg" xmlns:xlink="http://www.w3.org/1999/xlink" version="1.1" id="&#x56FE;&#x5C42;_1" x="0px" y="0px" width="139.05131649556" height="139.05131649556" viewBox="2 2 197 197" style="enable-background:new 0 0 200 200;" xml:space="preserve" class="style-removed" preserveAspectRatio="none" data-parent="shape_mcPKvHymMu">

<g>
	<radialGradient id="SVGID_1__x7Wrg5gbmi" cx="100.5" cy="100.5" r="98.5" gradientUnits="userSpaceOnUse">
		<stop offset="0.2011" stop-color="#5d4d2c" stop-opacity="0"/>
		<stop offset="0.9832" stop-color="#5d4d2c"/>
	</radialGradient>
	<circle cx="100.5" cy="100.5" r="98.5" fill="url(#SVGID_1__x7Wrg5gbmi)" stroke-width="0"/>
</g>
</svg></g></g><g id="shape_I7l9RhOmnm" transform="translate(-4.516241939020006,30.034607884537422) rotate(0,272.8722308167287,114) scale(1,1)" filter="" style="opacity: 1;"><g><svg xmlns="http://www.w3.org/2000/svg" xmlns:xlink="http://www.w3.org/1999/xlink" version="1.1" width="587.7444616334574" height="228" viewBox="0 0 587.7444616334574 228" data-parent="shape_I7l9RhOmnm"><g data-width="248" transform="translate(21, 0)"><path d="M8.61-17.33L8.61-17.33L11.53-17.03Q11.51-16.80 11.34-16.65Q11.17-16.51 10.77-16.44L10.77-16.44Q10.96-12.50 11.87-9.44Q12.77-6.38 14.79-4.15Q16.82-1.91 20.39-0.44L20.39-0.44L20.35-0.21Q18.80 0.06 18.35 1.70L18.35 1.70Q14.34-0.53 12.65-4.16Q10.96-7.79 10.63-12.71L10.63-12.71Q10.48-10.06 9.68-7.47Q8.88-4.87 6.86-2.52Q4.83-0.17 1.01 1.76L1.01 1.76L0.76 1.45Q4.60-1.24 6.27-4.26Q7.94-7.29 8.31-10.49Q8.67-13.69 8.61-16.93L8.61-16.93Q8.61-17.12 8.61-17.33Z" transform="translate(0 89) " fill="rgb(255, 255, 255)" stroke="rgb(255, 255, 255)" stroke-width="0.035" data-glyph-w="31" data-glyph-h="30.177000000000003" data-glyph-ascender="24.171000000000003" data-glyph-descender="-6.006"/><path d="M1.05-8.25L0.84-8.95L15.90-8.95L17.45-11.07Q17.45-11.07 17.93-10.66Q18.42-10.25 19.07-9.68Q19.72-9.11 20.29-8.59L20.29-8.59Q20.14-8.25 19.64-8.25L19.64-8.25L1.05-8.25Z" transform="translate(31 89) " fill="rgb(255, 255, 255)" stroke="rgb(255, 255, 255)" stroke-width="0.035" data-glyph-w="31" data-glyph-h="30.177000000000003" data-glyph-ascender="24.171000000000003" data-glyph-descender="-6.006"/><path d="M7.22-17.56L7.22-17.56L7.43-17.70Q10.29-16.91 11.05-15.65Q11.80-14.39 11.22-13.60Q10.65-12.81 9.53-13.48L9.53-13.48Q9.32-14.57 8.66-15.68Q8.00-16.78 7.22-17.56ZM5.48-3.09L5.48-3.09L5.57-3.02Q6.83-1.76 8.75-1.34Q10.67-0.92 13.84-0.92L13.84-0.92Q17.28-0.92 20.29-1.05L20.29-1.05L20.29-0.80Q18.92-0.40 18.75 1.16L18.75 1.16L13.13 1.16Q9.93 1.16 8.23 0.38Q6.53-0.40 5.25-2.29L5.25-2.29Q4.87-2.88 4.54-2.29L4.54-2.29Q4.28-1.91 3.89-1.30L3.89-1.30Q3.11-0.13 2.37 1.05L2.37 1.05Q2.42 1.20 2.35 1.31Q2.29 1.43 2.18 1.53L2.18 1.53L0.57-0.84Q1.36-1.30 2.31-1.93L2.31-1.93Q3.15-2.48 3.84-2.90Q4.54-3.32 4.79-3.32L4.79-3.32L4.89-3.32Q7.90-4.98 10.65-7.28Q13.40-9.58 15.10-12.01L15.10-12.01L1.95-12.01L1.76-12.62L15.23-12.62L16.51-13.80L18.50-11.95Q18.38-11.80 18.18-11.74Q17.98-11.68 17.56-11.66L17.56-11.66Q13.36-6.22 5.48-3.09Z" transform="translate(62 89) " fill="rgb(255, 255, 255)" stroke="rgb(255, 255, 255)" stroke-width="0.035" data-glyph-w="31" data-glyph-h="30.177000000000003" data-glyph-ascender="24.171000000000003" data-glyph-descender="-6.006"/><path d="M1.64 4.45L1.64 4.45L1.30 3.84Q2.52 3.15 3.05 2.32Q3.57 1.49 3.65 0.76L3.65 0.76Q3.19 0.61 2.70 0.38Q2.21 0.15 1.85-0.24Q1.49-0.63 1.49-1.26L1.49-1.26Q1.49-1.87 1.92-2.33Q2.35-2.79 3.09-2.79L3.09-2.79Q3.89-2.79 4.38-2.21Q4.87-1.62 4.87-0.63L4.87-0.63Q4.87 0.25 4.57 1.22Q4.26 2.18 3.55 3.03Q2.83 3.89 1.64 4.45Z" transform="translate(93 89) " fill="rgb(255, 255, 255)" stroke="rgb(255, 255, 255)" stroke-width="0.035" data-glyph-w="31" data-glyph-h="30.177000000000003" data-glyph-ascender="24.171000000000003" data-glyph-descender="-6.006"/><path d="M18.54-4.94L18.80-4.94L18.82-1.32Q19.49-1.13 19.75-0.98Q20.01-0.82 20.01-0.46L20.01-0.46Q20.01 0.02 19.64 0.38Q19.26 0.74 18.24 0.92Q17.22 1.11 15.29 1.11L15.29 1.11L6.78 1.11Q4.68 1.11 3.71 0.50Q2.73-0.11 2.73-1.83L2.73-1.83L2.73-10.56L5.06-9.68L14.81-9.68L14.81-15.46L2.75-15.46L2.56-16.07L14.57-16.07L15.62-17.20L17.83-15.50Q17.58-15.20 16.86-15.02L16.86-15.02L16.86-7.77Q16.84-7.69 16.56-7.57Q16.28-7.46 15.88-7.35Q15.48-7.25 15.14-7.25L15.14-7.25L14.81-7.25L14.81-9.07L4.79-9.07L4.79-1.74Q4.79-1.20 5.26-1.02Q5.73-0.84 6.66-0.84L6.66-0.84L15.10-0.84Q16.11-0.84 16.61-0.97Q17.12-1.09 17.37-1.51L17.37-1.51Q17.64-1.95 17.97-2.93Q18.29-3.91 18.54-4.94L18.54-4.94Z" transform="translate(124 89) " fill="rgb(255, 255, 255)" stroke="rgb(255, 255, 255)" stroke-width="0.035" data-glyph-w="31" data-glyph-h="30.177000000000003" data-glyph-ascender="24.171000000000003" data-glyph-descender="-6.006"/><path d="M15.08-6.32L15.08-10.88L6.03-10.88L6.03-6.32L15.08-6.32ZM6.03-5.71L6.03-0.71L15.08-0.71L15.08-5.71L6.03-5.71ZM1.22-15.81L16.19-15.81L17.47-17.41Q17.47-17.41 17.88-17.10Q18.29-16.80 18.84-16.38Q19.38-15.96 19.85-15.54L19.85-15.54Q19.72-15.20 19.28-15.20L19.28-15.20L11.40-15.20Q10.37-13.10 9.20-11.49L9.20-11.49L14.87-11.49L15.90-12.62L18.00-10.96Q17.79-10.69 17.14-10.52L17.14-10.52L17.14 0.97Q17.12 1.05 16.84 1.20Q16.57 1.34 16.17 1.46Q15.77 1.58 15.41 1.58L15.41 1.58L15.08 1.58L15.08-0.11L6.03-0.11L6.03 0.99Q6.03 1.16 5.51 1.43Q5.00 1.70 4.33 1.70L4.33 1.70L4.01 1.70L4.01-12.41L6.17-11.49L8.46-11.49Q8.59-12.26 8.71-13.27Q8.84-14.28 8.95-15.20L8.95-15.20L1.41-15.20L1.22-15.81Z" transform="translate(155 89) " fill="rgb(255, 255, 255)" stroke="rgb(255, 255, 255)" stroke-width="0.035" data-glyph-w="31" data-glyph-h="30.177000000000003" data-glyph-ascender="24.171000000000003" data-glyph-descender="-6.006"/><path d="M7.22-17.56L7.22-17.56L7.43-17.70Q10.29-16.91 11.05-15.65Q11.80-14.39 11.22-13.60Q10.65-12.81 9.53-13.48L9.53-13.48Q9.32-14.57 8.66-15.68Q8.00-16.78 7.22-17.56ZM5.48-3.09L5.48-3.09L5.57-3.02Q6.83-1.76 8.75-1.34Q10.67-0.92 13.84-0.92L13.84-0.92Q17.28-0.92 20.29-1.05L20.29-1.05L20.29-0.80Q18.92-0.40 18.75 1.16L18.75 1.16L13.13 1.16Q9.93 1.16 8.23 0.38Q6.53-0.40 5.25-2.29L5.25-2.29Q4.87-2.88 4.54-2.29L4.54-2.29Q4.28-1.91 3.89-1.30L3.89-1.30Q3.11-0.13 2.37 1.05L2.37 1.05Q2.42 1.20 2.35 1.31Q2.29 1.43 2.18 1.53L2.18 1.53L0.57-0.84Q1.36-1.30 2.31-1.93L2.31-1.93Q3.15-2.48 3.84-2.90Q4.54-3.32 4.79-3.32L4.79-3.32L4.89-3.32Q7.90-4.98 10.65-7.28Q13.40-9.58 15.10-12.01L15.10-12.01L1.95-12.01L1.76-12.62L15.23-12.62L16.51-13.80L18.50-11.95Q18.38-11.80 18.18-11.74Q17.98-11.68 17.56-11.66L17.56-11.66Q13.36-6.22 5.48-3.09Z" transform="translate(186 89) " fill="rgb(255, 255, 255)" stroke="rgb(255, 255, 255)" stroke-width="0.035" data-glyph-w="31" data-glyph-h="30.177000000000003" data-glyph-ascender="24.171000000000003" data-glyph-descender="-6.006"/><path d="M1.64 4.45L1.64 4.45L1.30 3.84Q2.52 3.15 3.05 2.32Q3.57 1.49 3.65 0.76L3.65 0.76Q3.19 0.61 2.70 0.38Q2.21 0.15 1.85-0.24Q1.49-0.63 1.49-1.26L1.49-1.26Q1.49-1.87 1.92-2.33Q2.35-2.79 3.09-2.79L3.09-2.79Q3.89-2.79 4.38-2.21Q4.87-1.62 4.87-0.63L4.87-0.63Q4.87 0.25 4.57 1.22Q4.26 2.18 3.55 3.03Q2.83 3.89 1.64 4.45Z" transform="translate(217 89) " fill="rgb(255, 255, 255)" stroke="rgb(255, 255, 255)" stroke-width="0.035" data-glyph-w="31" data-glyph-h="30.177000000000003" data-glyph-ascender="24.171000000000003" data-glyph-descender="-6.006"/></g><g data-width="248" transform="translate(21, 0)"><path d="M8.61-17.33L8.61-17.33L11.53-17.03Q11.51-16.80 11.34-16.65Q11.17-16.51 10.77-16.44L10.77-16.44Q10.96-12.50 11.87-9.44Q12.77-6.38 14.79-4.15Q16.82-1.91 20.39-0.44L20.39-0.44L20.35-0.21Q18.80 0.06 18.35 1.70L18.35 1.70Q14.34-0.53 12.65-4.16Q10.96-7.79 10.63-12.71L10.63-12.71Q10.48-10.06 9.68-7.47Q8.88-4.87 6.86-2.52Q4.83-0.17 1.01 1.76L1.01 1.76L0.76 1.45Q4.60-1.24 6.27-4.26Q7.94-7.29 8.31-10.49Q8.67-13.69 8.61-16.93L8.61-16.93Q8.61-17.12 8.61-17.33Z" transform="translate(0 123) " fill="rgb(255, 255, 255)" stroke="rgb(255, 255, 255)" stroke-width="0.035" data-glyph-w="31" data-glyph-h="30.177000000000003" data-glyph-ascender="24.171000000000003" data-glyph-descender="-6.006"/><path d="M11.51-9.89L16.42-9.89L17.79-11.72Q17.79-11.72 18.22-11.37Q18.65-11.03 19.21-10.54Q19.78-10.06 20.24-9.62L20.24-9.62Q20.14-9.28 19.66-9.28L19.66-9.28L11.51-9.28L11.51 0.92Q11.51 1.11 10.95 1.41Q10.40 1.70 9.74 1.70L9.74 1.70L9.35 1.70L9.35-9.28L0.97-9.28L0.78-9.89L9.35-9.89L9.35-17.62L12.37-17.33Q12.35-17.05 12.16-16.88Q11.97-16.72 11.51-16.63L11.51-16.63L11.51-9.89Z" transform="translate(31 123) " fill="rgb(255, 255, 255)" stroke="rgb(255, 255, 255)" stroke-width="0.035" data-glyph-w="31" data-glyph-h="30.177000000000003" data-glyph-ascender="24.171000000000003" data-glyph-descender="-6.006"/><path d="M7.22-17.56L7.22-17.56L7.43-17.70Q10.29-16.91 11.05-15.65Q11.80-14.39 11.22-13.60Q10.65-12.81 9.53-13.48L9.53-13.48Q9.32-14.57 8.66-15.68Q8.00-16.78 7.22-17.56ZM5.48-3.09L5.48-3.09L5.57-3.02Q6.83-1.76 8.75-1.34Q10.67-0.92 13.84-0.92L13.84-0.92Q17.28-0.92 20.29-1.05L20.29-1.05L20.29-0.80Q18.92-0.40 18.75 1.16L18.75 1.16L13.13 1.16Q9.93 1.16 8.23 0.38Q6.53-0.40 5.25-2.29L5.25-2.29Q4.87-2.88 4.54-2.29L4.54-2.29Q4.28-1.91 3.89-1.30L3.89-1.30Q3.11-0.13 2.37 1.05L2.37 1.05Q2.42 1.20 2.35 1.31Q2.29 1.43 2.18 1.53L2.18 1.53L0.57-0.84Q1.36-1.30 2.31-1.93L2.31-1.93Q3.15-2.48 3.84-2.90Q4.54-3.32 4.79-3.32L4.79-3.32L4.89-3.32Q7.90-4.98 10.65-7.28Q13.40-9.58 15.10-12.01L15.10-12.01L1.95-12.01L1.76-12.62L15.23-12.62L16.51-13.80L18.50-11.95Q18.38-11.80 18.18-11.74Q17.98-11.68 17.56-11.66L17.56-11.66Q13.36-6.22 5.48-3.09Z" transform="translate(62 123) " fill="rgb(255, 255, 255)" stroke="rgb(255, 255, 255)" stroke-width="0.035" data-glyph-w="31" data-glyph-h="30.177000000000003" data-glyph-ascender="24.171000000000003" data-glyph-descender="-6.006"/><path d="M1.64 4.45L1.64 4.45L1.30 3.84Q2.52 3.15 3.05 2.32Q3.57 1.49 3.65 0.76L3.65 0.76Q3.19 0.61 2.70 0.38Q2.21 0.15 1.85-0.24Q1.49-0.63 1.49-1.26L1.49-1.26Q1.49-1.87 1.92-2.33Q2.35-2.79 3.09-2.79L3.09-2.79Q3.89-2.79 4.38-2.21Q4.87-1.62 4.87-0.63L4.87-0.63Q4.87 0.25 4.57 1.22Q4.26 2.18 3.55 3.03Q2.83 3.89 1.64 4.45Z" transform="translate(93 123) " fill="rgb(255, 255, 255)" stroke="rgb(255, 255, 255)" stroke-width="0.035" data-glyph-w="31" data-glyph-h="30.177000000000003" data-glyph-ascender="24.171000000000003" data-glyph-descender="-6.006"/><path d="M18.54-4.94L18.80-4.94L18.82-1.32Q19.49-1.13 19.75-0.98Q20.01-0.82 20.01-0.46L20.01-0.46Q20.01 0.02 19.64 0.38Q19.26 0.74 18.24 0.92Q17.22 1.11 15.29 1.11L15.29 1.11L6.78 1.11Q4.68 1.11 3.71 0.50Q2.73-0.11 2.73-1.83L2.73-1.83L2.73-10.56L5.06-9.68L14.81-9.68L14.81-15.46L2.75-15.46L2.56-16.07L14.57-16.07L15.62-17.20L17.83-15.50Q17.58-15.20 16.86-15.02L16.86-15.02L16.86-7.77Q16.84-7.69 16.56-7.57Q16.28-7.46 15.88-7.35Q15.48-7.25 15.14-7.25L15.14-7.25L14.81-7.25L14.81-9.07L4.79-9.07L4.79-1.74Q4.79-1.20 5.26-1.02Q5.73-0.84 6.66-0.84L6.66-0.84L15.10-0.84Q16.11-0.84 16.61-0.97Q17.12-1.09 17.37-1.51L17.37-1.51Q17.64-1.95 17.97-2.93Q18.29-3.91 18.54-4.94L18.54-4.94Z" transform="translate(124 123) " fill="rgb(255, 255, 255)" stroke="rgb(255, 255, 255)" stroke-width="0.035" data-glyph-w="31" data-glyph-h="30.177000000000003" data-glyph-ascender="24.171000000000003" data-glyph-descender="-6.006"/><path d="M11.57-9.13L16.51-9.13L17.87-10.90Q17.87-10.90 18.29-10.57Q18.71-10.25 19.27-9.78Q19.82-9.30 20.31-8.86L20.31-8.86Q20.16-8.53 19.72-8.53L19.72-8.53L11.57-8.53L11.57 1.16Q11.57 1.26 11.09 1.52Q10.61 1.79 9.81 1.79L9.81 1.79L9.41 1.79L9.41-8.53L1.05-8.53L0.88-9.13L9.41-9.13L9.41-14.47Q5.88-14.11 2.42-14.11L2.42-14.11L2.35-14.47Q6.07-14.89 9.82-15.75Q13.57-16.61 15.92-17.54L15.92-17.54L18.04-15.54Q17.72-15.25 16.74-15.56L16.74-15.56Q14.49-15.08 11.57-14.70L11.57-14.70L11.57-9.13Z" transform="translate(155 123) " fill="rgb(255, 255, 255)" stroke="rgb(255, 255, 255)" stroke-width="0.035" data-glyph-w="31" data-glyph-h="30.177000000000003" data-glyph-ascender="24.171000000000003" data-glyph-descender="-6.006"/><path d="M7.22-17.56L7.22-17.56L7.43-17.70Q10.29-16.91 11.05-15.65Q11.80-14.39 11.22-13.60Q10.65-12.81 9.53-13.48L9.53-13.48Q9.32-14.57 8.66-15.68Q8.00-16.78 7.22-17.56ZM5.48-3.09L5.48-3.09L5.57-3.02Q6.83-1.76 8.75-1.34Q10.67-0.92 13.84-0.92L13.84-0.92Q17.28-0.92 20.29-1.05L20.29-1.05L20.29-0.80Q18.92-0.40 18.75 1.16L18.75 1.16L13.13 1.16Q9.93 1.16 8.23 0.38Q6.53-0.40 5.25-2.29L5.25-2.29Q4.87-2.88 4.54-2.29L4.54-2.29Q4.28-1.91 3.89-1.30L3.89-1.30Q3.11-0.13 2.37 1.05L2.37 1.05Q2.42 1.20 2.35 1.31Q2.29 1.43 2.18 1.53L2.18 1.53L0.57-0.84Q1.36-1.30 2.31-1.93L2.31-1.93Q3.15-2.48 3.84-2.90Q4.54-3.32 4.79-3.32L4.79-3.32L4.89-3.32Q7.90-4.98 10.65-7.28Q13.40-9.58 15.10-12.01L15.10-12.01L1.95-12.01L1.76-12.62L15.23-12.62L16.51-13.80L18.50-11.95Q18.38-11.80 18.18-11.74Q17.98-11.68 17.56-11.66L17.56-11.66Q13.36-6.22 5.48-3.09Z" transform="translate(186 123) " fill="rgb(255, 255, 255)" stroke="rgb(255, 255, 255)" stroke-width="0.035" data-glyph-w="31" data-glyph-h="30.177000000000003" data-glyph-ascender="24.171000000000003" data-glyph-descender="-6.006"/><path d="M3.84 1.74L3.84 1.74Q2.63 1.74 1.74 0.86Q0.86-0.02 0.86-1.24L0.86-1.24Q0.86-2.48 1.74-3.34Q2.63-4.20 3.84-4.20L3.84-4.20Q5.08-4.20 5.94-3.34Q6.80-2.48 6.80-1.24L6.80-1.24Q6.80-0.02 5.94 0.86Q5.08 1.74 3.84 1.74ZM3.84-3.44L3.84-3.44Q2.92-3.44 2.27-2.80Q1.62-2.16 1.62-1.24L1.62-1.24Q1.62-0.34 2.27 0.33Q2.92 0.99 3.84 0.99L3.84 0.99Q4.77 0.99 5.41 0.33Q6.05-0.34 6.05-1.24L6.05-1.24Q6.05-2.16 5.41-2.80Q4.77-3.44 3.84-3.44Z" transform="translate(217 123) " fill="rgb(255, 255, 255)" stroke="rgb(255, 255, 255)" stroke-width="0.035" data-glyph-w="31" data-glyph-h="30.177000000000003" data-glyph-ascender="24.171000000000003" data-glyph-descender="-6.006"/></g><g data-width="341" transform="translate(21, 0)"><path d="M5.50-5.25L5.50-5.25L7.96-3.93Q7.88-3.76 7.70-3.71Q7.52-3.65 7.18-3.72L7.18-3.72Q6.15-2.48 4.53-1.25Q2.90-0.02 0.92 0.82L0.92 0.82L0.74 0.57Q2.27-0.63 3.54-2.24Q4.81-3.84 5.50-5.25ZM13.23-4.62L13.23-4.62L13.44-4.79Q16.19-4.12 17.50-3.08Q18.82-2.04 19.04-1.07Q19.26-0.11 18.74 0.37Q18.23 0.84 17.33 0.36L17.33 0.36Q16.80-1.01 15.63-2.35Q14.47-3.70 13.23-4.62ZM11.53-6.89L16.02-6.89L17.22-8.42Q17.22-8.42 17.61-8.13Q18.00-7.83 18.51-7.42Q19.03-7.01 19.47-6.62L19.47-6.62Q19.38-6.28 18.90-6.28L18.90-6.28L11.53-6.28L11.53-0.84Q11.53-0.13 11.32 0.43Q11.11 0.99 10.47 1.33Q9.83 1.68 8.57 1.79L8.57 1.79Q8.53 0.82 8.06 0.36L8.06 0.36Q7.83 0.13 7.38-0.06Q6.93-0.25 6.11-0.36L6.11-0.36L6.11-0.63Q6.11-0.63 6.47-0.61Q6.83-0.59 7.32-0.56Q7.81-0.53 8.26-0.50Q8.71-0.48 8.90-0.48L8.90-0.48Q9.45-0.48 9.39-0.90L9.39-0.90L9.39-6.28L1.87-6.28L1.68-6.89L9.39-6.89L9.39-9.83L5.31-9.83L5.15-10.44L12.54-10.44L13.69-11.89Q13.69-11.89 14.06-11.60Q14.43-11.32 14.92-10.93Q15.41-10.54 15.83-10.16L15.83-10.16Q15.73-9.83 15.25-9.83L15.25-9.83L11.53-9.83L11.53-6.89ZM9.22-17.81L9.22-17.81L12.47-16.99Q12.41-16.61 11.51-16.55L11.51-16.55Q13.02-14.74 15.48-13.49Q17.93-12.24 20.52-11.47L20.52-11.47L20.50-11.13Q19.80-10.94 19.36-10.42Q18.92-9.89 18.80-9.26L18.80-9.26Q16.34-10.44 14.29-12.22Q12.24-14.01 11.15-16.32L11.15-16.32Q9.53-14.03 6.68-11.90Q3.82-9.77 0.74-8.48L0.74-8.48L0.59-8.76Q3.36-10.42 5.86-13.00Q8.36-15.58 9.22-17.81Z" transform="translate(0 157) " fill="rgb(255, 255, 255)" stroke="rgb(255, 255, 255)" stroke-width="0.035" data-glyph-w="31" data-glyph-h="30.177000000000003" data-glyph-ascender="24.171000000000003" data-glyph-descender="-6.006"/><path d="M5.46-8.46L5.46-4.87L9.62-4.87L9.62-8.46L5.46-8.46ZM15.67-4.87L15.67-8.46L11.68-8.46L11.68-4.87L15.67-4.87ZM14.64-15.83L6.70-15.83L6.70-12.39L14.64-12.39L14.64-15.83ZM13.99-3.21L13.99-3.21L14.18-3.38Q17.49-2.42 18.56-1.06Q19.64 0.29 19.25 1.14Q18.86 2.00 17.75 1.47L17.75 1.47Q17.35 0.48 16.55-0.53L16.55-0.53Q12.14 0.21 3.17 1.26L3.17 1.26Q2.92 1.64 2.58 1.70L2.58 1.70L1.45-0.65Q3.97-0.65 9.62-0.80L9.62-0.80L9.62-4.26L5.46-4.26L5.46-3.57Q5.46-3.49 5.21-3.34Q4.96-3.19 4.58-3.08Q4.20-2.96 3.80-2.96L3.80-2.96L3.51-2.96L3.51-9.93L5.61-9.05L9.62-9.05L9.62-11.78L6.70-11.78L6.70-11.03Q6.70-10.92 6.28-10.72Q5.86-10.52 5.12-10.52L5.12-10.52L4.79-10.52L4.79-17.28L6.93-16.44L14.57-16.44L15.52-17.51L17.39-16.09Q17.24-15.81 16.63-15.71L16.63-15.71L16.63-11.36Q16.63-11.30 16.17-11.10Q15.71-10.90 14.97-10.90L14.97-10.90L14.64-10.90L14.64-11.78L11.68-11.78L11.68-9.05L15.46-9.05L16.40-10.12L18.48-8.55Q18.27-8.27 17.60-8.11L17.60-8.11L17.60-3.89Q17.58-3.80 17.31-3.69Q17.05-3.57 16.68-3.47Q16.32-3.36 15.98-3.36L15.98-3.36L15.67-3.36L15.67-4.26L11.68-4.26L11.68-0.86Q13.86-0.92 16.17-0.99L16.17-0.99Q15.10-2.29 13.99-3.21Z" transform="translate(31 157) " fill="rgb(255, 255, 255)" stroke="rgb(255, 255, 255)" stroke-width="0.035" data-glyph-w="31" data-glyph-h="30.177000000000003" data-glyph-ascender="24.171000000000003" data-glyph-descender="-6.006"/><path d="M3.86-3.65L3.86-3.65L4.20-3.63Q4.64-1.87 4.18-0.72Q3.72 0.42 2.92 0.80L2.92 0.80Q2.44 1.07 1.94 1.01Q1.45 0.95 1.24 0.50L1.24 0.50Q1.09 0.08 1.31-0.26Q1.53-0.61 1.95-0.84L1.95-0.84Q2.63-1.16 3.20-1.90Q3.78-2.65 3.86-3.65ZM5.86-13.55L5.86-11.82L9.55-11.82L9.55-13.55L5.86-13.55ZM9.55-14.15L9.55-15.96L5.86-15.96L5.86-14.15L9.55-14.15ZM15.08-14.15L15.08-15.96L11.51-15.96L11.51-14.15L15.08-14.15ZM11.51-13.55L11.51-11.82L15.08-11.82L15.08-13.55L11.51-13.55ZM6.32-5.31L6.32-5.31L5.23-7.25Q6.74-7.22 9.55-7.29L9.55-7.29L9.55-9.03L4.35-9.03L4.35-4.41Q4.35-4.33 4.10-4.18Q3.84-4.03 3.48-3.93Q3.11-3.82 2.71-3.82L2.71-3.82L2.44-3.82L2.44-10.50L4.54-9.64L9.55-9.64L9.55-11.21L5.86-11.21L5.86-10.86Q5.86-10.71 5.34-10.48Q4.83-10.25 4.22-10.25L4.22-10.25L3.95-10.25L3.95-17.43L6.01-16.57L14.87-16.57L15.86-17.64L17.93-16.07Q17.70-15.79 17.05-15.62L17.05-15.62L17.05-11.07Q17.03-10.98 16.77-10.86Q16.51-10.73 16.13-10.62Q15.75-10.50 15.41-10.50L15.41-10.50L15.08-10.50L15.08-11.21L11.51-11.21L11.51-9.64L16.44-9.64L17.37-10.69L19.49-9.11Q19.28-8.84 18.61-8.67L18.61-8.67L18.61-5.75Q18.61-5.19 18.43-4.76Q18.25-4.33 17.68-4.07Q17.12-3.82 15.98-3.72L15.98-3.72Q15.94-4.47 15.54-4.81L15.54-4.81Q15.33-4.98 14.96-5.12Q14.60-5.27 13.92-5.38L13.92-5.38L13.92-5.67Q13.92-5.67 14.22-5.65Q14.51-5.63 14.93-5.61Q15.35-5.59 15.73-5.57Q16.11-5.54 16.25-5.54L16.25-5.54Q16.48-5.54 16.57-5.63Q16.65-5.71 16.65-5.92L16.65-5.92L16.65-9.03L11.51-9.03L11.51-7.35L13.48-7.41Q13.00-8.04 12.41-8.46L12.41-8.46L12.62-8.63Q14.11-8.36 14.76-7.81Q15.41-7.27 15.42-6.73Q15.44-6.20 15.05-5.94Q14.66-5.69 14.09-6.03L14.09-6.03Q14.03-6.49 13.76-6.93L13.76-6.93Q11.36-6.47 6.87-5.73L6.87-5.73Q6.64-5.38 6.32-5.31ZM9.58-4.94L9.58-4.94L9.79-5.08Q11.51-4.54 12.19-3.78Q12.87-3.02 12.82-2.35Q12.77-1.68 12.27-1.43Q11.78-1.18 11.15-1.66L11.15-1.66Q11.09-2.54 10.63-3.42Q10.16-4.31 9.58-4.94ZM15.25-3.09L15.48-3.09L15.54-0.74Q16.02-0.59 16.19-0.40Q16.36-0.21 16.36 0.06L16.36 0.06Q16.36 0.71 15.38 0.92Q14.41 1.13 11.28 1.13L11.28 1.13L8.40 1.13Q6.74 1.13 6.24 0.81Q5.73 0.48 5.73-0.55L5.73-0.55L5.73-4.58L8.38-4.35Q8.34-3.93 7.73-3.82L7.73-3.82L7.73-0.86Q7.73-0.71 7.79-0.63Q7.85-0.55 8.06-0.51Q8.27-0.48 8.71-0.48L8.71-0.48L11.47-0.48Q13.08-0.48 13.82-0.53L13.82-0.53Q14.05-0.55 14.16-0.60Q14.28-0.65 14.39-0.80L14.39-0.80Q14.72-1.39 15.25-3.09L15.25-3.09ZM15.96-3.40L15.96-3.40L16.17-3.55Q18.14-2.90 18.97-2.01Q19.80-1.11 19.81-0.36Q19.82 0.40 19.32 0.70Q18.82 1.01 18.14 0.50L18.14 0.50Q18.00-0.53 17.37-1.59Q16.74-2.65 15.96-3.40Z" transform="translate(62 157) " fill="rgb(255, 255, 255)" stroke="rgb(255, 255, 255)" stroke-width="0.035" data-glyph-w="31" data-glyph-h="30.177000000000003" data-glyph-ascender="24.171000000000003" data-glyph-descender="-6.006"/><path d="M8.74-17.16L8.74-17.16L8.97-17.30Q11.61-16.04 12.21-14.58Q12.81-13.13 12.18-12.35Q11.55-11.57 10.52-12.35L10.52-12.35Q10.52-13.59 9.99-14.89Q9.45-16.19 8.74-17.16ZM3.61-10.79L3.61-10.79L3.93-10.82Q4.77-8.42 4.53-6.79Q4.28-5.17 3.55-4.37L3.55-4.37Q3.07-3.80 2.44-3.75Q1.81-3.70 1.45-4.18L1.45-4.18Q0.97-5.12 1.87-5.84L1.87-5.84Q2.56-6.47 3.10-7.81Q3.63-9.16 3.61-10.79ZM16.04-4.85L16.30-4.85L16.36-1.43Q16.86-1.26 17.04-1.05Q17.22-0.84 17.22-0.55L17.22-0.55Q17.22-0.06 16.79 0.23Q16.36 0.53 15.21 0.66Q14.07 0.80 11.89 0.80L11.89 0.80L9.09 0.80Q7.37 0.80 6.73 0.37Q6.09-0.06 6.09-1.34L6.09-1.34L6.09-1.47Q3.82 0 1.05 1.09L1.05 1.09L0.84 0.82Q3.76-0.71 6.09-2.73L6.09-2.73L6.09-13.84L8.82-13.55Q8.82-13.13 8.11-12.98L8.11-12.98L8.11-4.68Q10.61-7.37 12.31-10.37Q14.01-13.38 14.97-16.38L14.97-16.38L17.85-15.33Q17.77-15.14 17.57-15.06Q17.37-14.97 16.93-15.02L16.93-15.02Q15.65-11.78 13.49-8.65Q11.34-5.52 8.11-2.90L8.11-2.90L8.11-1.87Q8.11-1.47 8.34-1.31Q8.57-1.16 9.35-1.16L9.35-1.16L12.03-1.16Q13.73-1.16 14.41-1.20L14.41-1.20Q14.66-1.22 14.81-1.30Q14.95-1.39 15.08-1.55L15.08-1.55Q15.44-2.33 16.04-4.85L16.04-4.85ZM15.81-10.33L15.81-10.33L16.04-10.48Q19.03-8.88 19.74-7.16Q20.45-5.44 19.79-4.56Q19.13-3.68 18.02-4.58L18.02-4.58Q17.96-6.05 17.31-7.58Q16.67-9.11 15.81-10.33Z" transform="translate(93 157) " fill="rgb(255, 255, 255)" stroke="rgb(255, 255, 255)" stroke-width="0.035" data-glyph-w="31" data-glyph-h="30.177000000000003" data-glyph-ascender="24.171000000000003" data-glyph-descender="-6.006"/><path d="M6.68-10.63L6.68-15.27L3.47-15.27L3.47-10.63L6.68-10.63ZM3.47-10.04L3.47-5.25L6.68-5.25L6.68-10.04L3.47-10.04ZM6.68-2.90L6.68-4.64L3.47-4.64L3.47-2.58Q3.47-2.48 3.05-2.21Q2.63-1.93 1.89-1.93L1.89-1.93L1.58-1.93L1.58-16.72L3.72-15.88L6.47-15.88L7.43-16.95L9.43-15.37Q9.22-15.10 8.55-14.93L8.55-14.93L8.55-3.57Q8.53-3.47 8.27-3.31Q8.02-3.15 7.67-3.02Q7.31-2.90 6.97-2.90L6.97-2.90L6.68-2.90ZM12.50-6.59L12.50-6.59L17.24-6.59L17.24-10.86L12.66-10.86L12.66-9.55Q12.66-8.09 12.50-6.59ZM17.24-11.47L17.24-15.65L12.66-15.65L12.66-11.47L17.24-11.47ZM17.03-16.25L17.96-17.35L20.05-15.75Q19.80-15.46 19.17-15.31L19.17-15.31L19.17-0.76Q19.17-0.04 18.98 0.48Q18.80 1.01 18.18 1.33Q17.56 1.66 16.28 1.79L16.28 1.79Q16.19 0.84 15.69 0.40L15.69 0.40Q15.18-0.11 13.52-0.34L13.52-0.34L13.52-0.65Q13.52-0.65 13.93-0.63Q14.34-0.61 14.91-0.57Q15.48-0.53 15.99-0.50Q16.51-0.48 16.70-0.48L16.70-0.48Q17.01-0.48 17.13-0.59Q17.24-0.69 17.24-0.97L17.24-0.97L17.24-5.99L12.41-5.99Q12.08-3.72 10.74-1.71Q9.41 0.29 6.45 1.79L6.45 1.79L6.20 1.58Q8.13 0.08 9.11-1.66Q10.10-3.40 10.43-5.38Q10.75-7.35 10.75-9.53L10.75-9.53L10.75-17.09L12.98-16.25L17.03-16.25Z" transform="translate(124 157) " fill="rgb(255, 255, 255)" stroke="rgb(255, 255, 255)" stroke-width="0.035" data-glyph-w="31" data-glyph-h="30.177000000000003" data-glyph-ascender="24.171000000000003" data-glyph-descender="-6.006"/><path d="M1.64 4.45L1.64 4.45L1.30 3.84Q2.52 3.15 3.05 2.32Q3.57 1.49 3.65 0.76L3.65 0.76Q3.19 0.61 2.70 0.38Q2.21 0.15 1.85-0.24Q1.49-0.63 1.49-1.26L1.49-1.26Q1.49-1.87 1.92-2.33Q2.35-2.79 3.09-2.79L3.09-2.79Q3.89-2.79 4.38-2.21Q4.87-1.62 4.87-0.63L4.87-0.63Q4.87 0.25 4.57 1.22Q4.26 2.18 3.55 3.03Q2.83 3.89 1.64 4.45Z" transform="translate(155 157) " fill="rgb(255, 255, 255)" stroke="rgb(255, 255, 255)" stroke-width="0.035" data-glyph-w="31" data-glyph-h="30.177000000000003" data-glyph-ascender="24.171000000000003" data-glyph-descender="-6.006"/><path d="M5.46-8.46L5.46-4.87L9.62-4.87L9.62-8.46L5.46-8.46ZM15.67-4.87L15.67-8.46L11.68-8.46L11.68-4.87L15.67-4.87ZM14.64-15.83L6.70-15.83L6.70-12.39L14.64-12.39L14.64-15.83ZM13.99-3.21L13.99-3.21L14.18-3.38Q17.49-2.42 18.56-1.06Q19.64 0.29 19.25 1.14Q18.86 2.00 17.75 1.47L17.75 1.47Q17.35 0.48 16.55-0.53L16.55-0.53Q12.14 0.21 3.17 1.26L3.17 1.26Q2.92 1.64 2.58 1.70L2.58 1.70L1.45-0.65Q3.97-0.65 9.62-0.80L9.62-0.80L9.62-4.26L5.46-4.26L5.46-3.57Q5.46-3.49 5.21-3.34Q4.96-3.19 4.58-3.08Q4.20-2.96 3.80-2.96L3.80-2.96L3.51-2.96L3.51-9.93L5.61-9.05L9.62-9.05L9.62-11.78L6.70-11.78L6.70-11.03Q6.70-10.92 6.28-10.72Q5.86-10.52 5.12-10.52L5.12-10.52L4.79-10.52L4.79-17.28L6.93-16.44L14.57-16.44L15.52-17.51L17.39-16.09Q17.24-15.81 16.63-15.71L16.63-15.71L16.63-11.36Q16.63-11.30 16.17-11.10Q15.71-10.90 14.97-10.90L14.97-10.90L14.64-10.90L14.64-11.78L11.68-11.78L11.68-9.05L15.46-9.05L16.40-10.12L18.48-8.55Q18.27-8.27 17.60-8.11L17.60-8.11L17.60-3.89Q17.58-3.80 17.31-3.69Q17.05-3.57 16.68-3.47Q16.32-3.36 15.98-3.36L15.98-3.36L15.67-3.36L15.67-4.26L11.68-4.26L11.68-0.86Q13.86-0.92 16.17-0.99L16.17-0.99Q15.10-2.29 13.99-3.21Z" transform="translate(186 157) " fill="rgb(255, 255, 255)" stroke="rgb(255, 255, 255)" stroke-width="0.035" data-glyph-w="31" data-glyph-h="30.177000000000003" data-glyph-ascender="24.171000000000003" data-glyph-descender="-6.006"/><path d="M1.07-6.78L1.07-6.78L0.90-7.10Q5.44-9.01 8.25-11.93L8.25-11.93L1.39-11.93L1.20-12.52L10.25-12.52L10.19-12.58Q9.39-13.88 6.83-14.93L6.83-14.93L6.91-15.25Q10.54-14.95 11.53-14.11L11.53-14.11Q12.81-14.99 13.90-15.94L13.90-15.94L3.42-15.94L3.23-16.53L14.28-16.53L15.56-17.72L17.62-15.77Q17.41-15.54 16.74-15.54L16.74-15.54Q15.79-15.08 14.49-14.61Q13.19-14.13 11.95-13.76L11.95-13.76Q12.22-13.40 12.19-13.07Q12.16-12.75 11.91-12.52L11.91-12.52L16.59-12.52L17.85-13.69L19.89-11.74Q19.66-11.51 19.03-11.51L19.03-11.51Q18.04-10.84 16.60-10.16Q15.16-9.49 13.88-9.05L13.88-9.05L13.69-9.24Q14.36-9.79 15.10-10.51Q15.83-11.24 16.40-11.93L16.40-11.93L12.45-11.93L12.45-8.90Q12.45-8.27 12.26-7.86Q12.08-7.46 11.48-7.22Q10.88-6.99 9.68-6.91L9.68-6.91Q9.66-7.60 9.24-7.92L9.24-7.92Q8.88-8.25 7.46-8.44L7.46-8.44L7.46-8.74Q7.46-8.74 7.78-8.71Q8.11-8.69 8.55-8.66Q8.99-8.63 9.40-8.61Q9.81-8.59 9.98-8.59L9.98-8.59Q10.27-8.59 10.35-8.68Q10.44-8.78 10.44-8.95L10.44-8.95L10.44-11.32Q6.80-8.23 1.07-6.78ZM19.64-4.52L19.64-4.52L12.16-4.52Q13.67-3.15 15.93-2.22Q18.19-1.28 20.50-0.88L20.50-0.88L20.45-0.63Q19.21-0.34 18.82 1.22L18.82 1.22Q14.05-0.42 11.55-4.52L11.55-4.52L11.45-4.52L11.45 1.24Q11.45 1.32 11.19 1.45Q10.94 1.58 10.56 1.67Q10.19 1.76 9.79 1.76L9.79 1.76L9.41 1.76L9.41-3.00Q6.11-0.11 0.78 1.36L0.78 1.36L0.61 1.05Q5.42-1.11 7.98-4.52L7.98-4.52L0.92-4.52L0.76-5.12L9.41-5.12L9.41-6.87L12.22-6.59Q12.20-6.36 12.03-6.22Q11.87-6.07 11.45-6.01L11.45-6.01L11.45-5.12L16.72-5.12L17.98-6.68Q17.98-6.68 18.35-6.38Q18.73-6.09 19.25-5.67Q19.76-5.25 20.20-4.85L20.20-4.85Q20.08-4.52 19.64-4.52Z" transform="translate(217 157) " fill="rgb(255, 255, 255)" stroke="rgb(255, 255, 255)" stroke-width="0.035" data-glyph-w="31" data-glyph-h="30.177000000000003" data-glyph-ascender="24.171000000000003" data-glyph-descender="-6.006"/><path d="M8.74-17.16L8.74-17.16L8.97-17.30Q11.61-16.04 12.21-14.58Q12.81-13.13 12.18-12.35Q11.55-11.57 10.52-12.35L10.52-12.35Q10.52-13.59 9.99-14.89Q9.45-16.19 8.74-17.16ZM3.61-10.79L3.61-10.79L3.93-10.82Q4.77-8.42 4.53-6.79Q4.28-5.17 3.55-4.37L3.55-4.37Q3.07-3.80 2.44-3.75Q1.81-3.70 1.45-4.18L1.45-4.18Q0.97-5.12 1.87-5.84L1.87-5.84Q2.56-6.47 3.10-7.81Q3.63-9.16 3.61-10.79ZM16.04-4.85L16.30-4.85L16.36-1.43Q16.86-1.26 17.04-1.05Q17.22-0.84 17.22-0.55L17.22-0.55Q17.22-0.06 16.79 0.23Q16.36 0.53 15.21 0.66Q14.07 0.80 11.89 0.80L11.89 0.80L9.09 0.80Q7.37 0.80 6.73 0.37Q6.09-0.06 6.09-1.34L6.09-1.34L6.09-1.47Q3.82 0 1.05 1.09L1.05 1.09L0.84 0.82Q3.76-0.71 6.09-2.73L6.09-2.73L6.09-13.84L8.82-13.55Q8.82-13.13 8.11-12.98L8.11-12.98L8.11-4.68Q10.61-7.37 12.31-10.37Q14.01-13.38 14.97-16.38L14.97-16.38L17.85-15.33Q17.77-15.14 17.57-15.06Q17.37-14.97 16.93-15.02L16.93-15.02Q15.65-11.78 13.49-8.65Q11.34-5.52 8.11-2.90L8.11-2.90L8.11-1.87Q8.11-1.47 8.34-1.31Q8.57-1.16 9.35-1.16L9.35-1.16L12.03-1.16Q13.73-1.16 14.41-1.20L14.41-1.20Q14.66-1.22 14.81-1.30Q14.95-1.39 15.08-1.55L15.08-1.55Q15.44-2.33 16.04-4.85L16.04-4.85ZM15.81-10.33L15.81-10.33L16.04-10.48Q19.03-8.88 19.74-7.16Q20.45-5.44 19.79-4.56Q19.13-3.68 18.02-4.58L18.02-4.58Q17.96-6.05 17.31-7.58Q16.67-9.11 15.81-10.33Z" transform="translate(248 157) " fill="rgb(255, 255, 255)" stroke="rgb(255, 255, 255)" stroke-width="0.035" data-glyph-w="31" data-glyph-h="30.177000000000003" data-glyph-ascender="24.171000000000003" data-glyph-descender="-6.006"/><path d="M5.48-7.08L6.47-8.06L8.32-6.55Q8.13-6.30 7.48-6.20L7.48-6.20Q7.27-0.11 6.01 1.03L6.01 1.03Q5.15 1.74 3.59 1.74L3.59 1.74Q3.59 1.34 3.51 1.03Q3.42 0.71 3.17 0.50L3.17 0.50Q2.90 0.29 2.35 0.12Q1.81-0.06 1.16-0.17L1.16-0.17L1.16-0.48Q1.53-0.46 1.97-0.42L1.97-0.42Q2.60-0.38 3.19-0.34Q3.78-0.29 4.03-0.29L4.03-0.29Q4.31-0.29 4.46-0.34Q4.62-0.38 4.75-0.50L4.75-0.50Q5.48-1.28 5.69-6.47L5.69-6.47L2.92-6.47L2.25-5.67L0.46-6.83Q0.78-7.08 1.20-7.25L1.20-7.25Q1.34-8.40 1.46-9.88Q1.58-11.36 1.62-12.41L1.62-12.41L3.70-11.57L5.59-11.57L5.59-15.75L1.09-15.75L0.90-16.36L5.36-16.36L6.28-17.39L8.27-15.86Q8.04-15.54 7.35-15.39L7.35-15.39L7.35-10.52Q7.33-10.46 7.09-10.34Q6.85-10.23 6.50-10.13Q6.15-10.04 5.86-10.04L5.86-10.04L5.59-10.04L5.59-10.96L3.21-10.96Q3.15-10.06 3.05-9.01Q2.94-7.96 2.83-7.08L2.83-7.08L5.48-7.08ZM10.61-8.97L10.61-5.27L12.92-5.27L12.92-8.97L10.61-8.97ZM17.09-5.27L17.09-8.97L14.74-8.97L14.74-5.27L17.09-5.27ZM16.61-15.94L11.17-15.94L11.17-12.71L16.61-12.71L16.61-15.94ZM16.23-3.36L16.23-3.36L16.46-3.51Q19.19-2.42 19.87-1.02Q20.54 0.38 19.96 1.17Q19.38 1.95 18.38 1.22L18.38 1.22Q18.33 0.19 17.85-0.90L17.85-0.90Q14.81-0.11 9.20 1.11L9.20 1.11Q8.99 1.51 8.63 1.58L8.63 1.58L7.54-0.67Q9.32-0.74 12.92-1.03L12.92-1.03L12.92-4.66L10.61-4.66L10.61-3.89Q10.61-3.82 10.38-3.69Q10.16-3.55 9.83-3.44Q9.49-3.34 9.13-3.34L9.13-3.34L8.88-3.34L8.88-10.35L10.73-9.58L12.92-9.58L12.92-12.10L11.17-12.10L11.17-11.55Q11.17-11.49 10.94-11.35Q10.71-11.21 10.35-11.10Q10.00-10.98 9.62-10.98L9.62-10.98L9.35-10.98L9.35-17.37L11.28-16.55L16.42-16.55L17.33-17.51L19.24-16.07Q19.15-15.96 18.95-15.84Q18.75-15.73 18.48-15.69L18.48-15.69L18.48-11.72Q18.46-11.66 18.21-11.54Q17.96-11.42 17.60-11.33Q17.24-11.24 16.93-11.24L16.93-11.24L16.61-11.24L16.61-12.10L14.74-12.10L14.74-9.58L16.91-9.58L17.79-10.52L19.66-9.09Q19.57-8.99 19.37-8.87Q19.17-8.76 18.90-8.71L18.90-8.71L18.90-4.26Q18.88-4.18 18.63-4.07Q18.38-3.97 18.03-3.87Q17.68-3.78 17.39-3.78L17.39-3.78L17.09-3.78L17.09-4.66L14.74-4.66L14.74-1.18L17.60-1.41Q17.01-2.58 16.23-3.36Z" transform="translate(279 157) " fill="rgb(255, 255, 255)" stroke="rgb(255, 255, 255)" stroke-width="0.035" data-glyph-w="31" data-glyph-h="30.177000000000003" data-glyph-ascender="24.171000000000003" data-glyph-descender="-6.006"/><path d="M3.84 1.74L3.84 1.74Q2.63 1.74 1.74 0.86Q0.86-0.02 0.86-1.24L0.86-1.24Q0.86-2.48 1.74-3.34Q2.63-4.20 3.84-4.20L3.84-4.20Q5.08-4.20 5.94-3.34Q6.80-2.48 6.80-1.24L6.80-1.24Q6.80-0.02 5.94 0.86Q5.08 1.74 3.84 1.74ZM3.84-3.44L3.84-3.44Q2.92-3.44 2.27-2.80Q1.62-2.16 1.62-1.24L1.62-1.24Q1.62-0.34 2.27 0.33Q2.92 0.99 3.84 0.99L3.84 0.99Q4.77 0.99 5.41 0.33Q6.05-0.34 6.05-1.24L6.05-1.24Q6.05-2.16 5.41-2.80Q4.77-3.44 3.84-3.44Z" transform="translate(310 157) " fill="rgb(255, 255, 255)" stroke="rgb(255, 255, 255)" stroke-width="0.035" data-glyph-w="31" data-glyph-h="30.177000000000003" data-glyph-ascender="24.171000000000003" data-glyph-descender="-6.006"/></g></svg></g></g><g id="shape_aB18cM6iOJ" transform="translate(-2.5162419390200057,168.96121694006) rotate(0,263.31244100198,82.93994140625) scale(1,1)" filter="" style="opacity: 1;"><g><svg xmlns="http://www.w3.org/2000/svg" xmlns:xlink="http://www.w3.org/1999/xlink" version="1.1" width="572.62488200396" height="165.8798828125" viewBox="0 0 572.62488200396 165.8798828125" data-parent="shape_aB18cM6iOJ"><g data-width="393.70478125" transform="translate(23, 0)"><path d="M1.12 1.01L0.55-0.39Q1.80-0.62 2.52-1.00Q3.25-1.38 3.62-1.97Q4.00-2.56 4.10-3.40Q4.21-4.23 4.21-5.38L4.21-5.38L4.21-17.73L6.37-17.73L6.37-5.77Q6.37-4.39 6.19-3.21Q6.02-2.03 5.47-1.15Q4.92-0.27 3.88 0.29Q2.84 0.85 1.12 1.01L1.12 1.01Z" transform="translate(0 88.43994140625) " fill="rgb(255, 255, 255)" stroke="rgb(255, 255, 255)" stroke-width="0.038" data-glyph-w="35.09716796875" data-glyph-h="25.93115234375" data-glyph-ascender="19.43994140625" data-glyph-descender="-6.4912109375"/><path d="M6.85-11.83L6.85-11.83Q6.35-11.83 5.79-11.74Q5.23-11.65 4.69-11.47Q4.14-11.30 3.63-11.05Q3.12-10.79 2.71-10.47L2.71-10.47L1.94-11.95Q2.58-12.30 3.13-12.56Q3.68-12.83 4.25-13.00Q4.82-13.18 5.44-13.27Q6.06-13.36 6.85-13.36L6.85-13.36Q8.55-13.36 9.56-12.99Q10.58-12.62 11.11-11.85Q11.65-11.07 11.81-9.87Q11.97-8.67 11.97-7.01L11.97-7.01L11.97 0L10.40 0L10.08-2.00Q9.25-0.83 8.11-0.30Q6.96 0.22 5.54 0.22L5.54 0.22Q4.53 0.22 3.71-0.03Q2.90-0.29 2.32-0.80Q1.75-1.31 1.44-2.08Q1.13-2.84 1.13-3.85L1.13-3.85Q1.13-4.83 1.50-5.60Q1.88-6.38 2.50-6.92Q3.13-7.46 3.96-7.74Q4.80-8.03 5.72-8.03L5.72-8.03Q6.64-8.03 7.40-7.94Q8.15-7.85 8.70-7.74Q9.24-7.64 9.55-7.55L9.55-7.55L9.84-7.47Q9.84-8.63 9.79-9.46Q9.75-10.29 9.47-10.81Q9.19-11.33 8.58-11.58Q7.97-11.83 6.85-11.83ZM6.06-1.31L6.06-1.31Q7.09-1.31 8.00-1.75Q8.92-2.19 9.84-3.04L9.84-3.04L9.84-6.39Q9.37-6.46 8.92-6.50L8.92-6.50Q8.52-6.55 8.07-6.59Q7.63-6.63 7.23-6.63L7.23-6.63Q6.42-6.63 5.71-6.54Q4.99-6.46 4.45-6.18Q3.91-5.90 3.59-5.37Q3.28-4.84 3.28-3.96L3.28-3.96Q3.28-3.18 3.48-2.67Q3.68-2.16 4.05-1.85Q4.41-1.55 4.92-1.43Q5.44-1.31 6.06-1.31Z" transform="translate(35.09716796875 88.43994140625) " fill="rgb(255, 255, 255)" stroke="rgb(255, 255, 255)" stroke-width="0.038" data-glyph-w="40.4765625" data-glyph-h="25.93115234375" data-glyph-ascender="19.43994140625" data-glyph-descender="-6.4912109375"/><path d="M5.57-0.26L0.51-13.13L2.55-13.13L6.54-2.80L9.92-13.13L12.11-13.13L7.20 0.42Q6.88 1.28 6.51 1.95Q6.13 2.62 5.73 3.11Q5.32 3.60 4.92 3.95Q4.51 4.30 4.13 4.53L4.13 4.53Q3.25 5.06 2.32 5.15L2.32 5.15L1.75 3.75Q2.41 3.59 2.99 3.33Q3.56 3.07 4.03 2.61Q4.50 2.15 4.89 1.45Q5.28 0.75 5.57-0.26L5.57-0.26Z" transform="translate(75.57373046875 88.43994140625) " fill="rgb(255, 255, 255)" stroke="rgb(255, 255, 255)" stroke-width="0.038" data-glyph-w="39.61181640625" data-glyph-h="25.93115234375" data-glyph-ascender="19.43994140625" data-glyph-descender="-6.4912109375"/><path d="M2.30-17.73L4.86-17.73L4.86-16.94L4.19-11.88L2.98-11.88L2.30-16.94L2.30-17.73Z" transform="translate(115.185546875 88.43994140625) " fill="rgb(255, 255, 255)" stroke="rgb(255, 255, 255)" stroke-width="0.038" data-glyph-w="34.1201171875" data-glyph-h="25.93115234375" data-glyph-ascender="19.43994140625" data-glyph-descender="-6.4912109375"/><path d="M6.31-5.67L3.80-6.56Q3.22-6.76 2.72-7.06Q2.21-7.36 1.84-7.77Q1.47-8.18 1.26-8.70Q1.04-9.23 1.04-9.89L1.04-9.89Q1.04-10.77 1.41-11.43Q1.77-12.08 2.38-12.51Q2.99-12.94 3.76-13.15Q4.54-13.36 5.37-13.36L5.37-13.36Q6.11-13.36 6.81-13.22Q7.51-13.07 8.10-12.86Q8.69-12.65 9.13-12.40Q9.57-12.16 9.79-11.98L9.79-11.98L9.10-10.57Q8.41-11.10 7.50-11.46Q6.58-11.83 5.51-11.83L5.51-11.83Q4.85-11.83 4.35-11.67Q3.85-11.52 3.52-11.27Q3.18-11.02 3.01-10.69Q2.84-10.37 2.84-10.01L2.84-10.01Q2.84-9.38 3.33-8.98Q3.82-8.58 4.68-8.28L4.68-8.28L6.57-7.61Q7.43-7.31 8.14-6.95Q8.84-6.59 9.34-6.12Q9.84-5.65 10.11-5.04Q10.39-4.44 10.39-3.65L10.39-3.65Q10.39-2.94 10.15-2.25Q9.91-1.55 9.36-1.00Q8.82-0.45 7.94-0.11Q7.06 0.24 5.78 0.24L5.78 0.24Q4.91 0.24 4.16 0.08Q3.41-0.08 2.83-0.30Q2.25-0.52 1.82-0.76Q1.39-1.00 1.16-1.17L1.16-1.17L1.86-2.59Q2.11-2.39 2.53-2.17Q2.95-1.94 3.46-1.75Q3.98-1.56 4.53-1.44Q5.08-1.31 5.58-1.31L5.58-1.31Q5.95-1.31 6.45-1.40Q6.95-1.49 7.40-1.73Q7.84-1.97 8.15-2.38Q8.46-2.80 8.46-3.44L8.46-3.44Q8.46-3.89 8.30-4.23Q8.14-4.57 7.86-4.83Q7.57-5.10 7.18-5.30Q6.78-5.50 6.31-5.67L6.31-5.67Z" transform="translate(149.3056640625 88.43994140625) " fill="rgb(255, 255, 255)" stroke="rgb(255, 255, 255)" stroke-width="0.038" data-glyph-w="38.140625" data-glyph-h="25.93115234375" data-glyph-ascender="19.43994140625" data-glyph-descender="-6.4912109375"/><path d="" transform="translate(187.4462890625 88.43994140625) " fill="rgb(255, 255, 255)" stroke="rgb(255, 255, 255)" stroke-width="0.038" data-glyph-w="36.154" data-glyph-h="23" data-glyph-ascender="20.24" data-glyph-descender="-2.76"/><path d="M1.72-17.73L5.77-17.73Q6.47-17.73 7.31-17.70Q8.14-17.68 8.98-17.55Q9.83-17.43 10.62-17.17Q11.41-16.91 12.02-16.47Q12.63-16.03 13.00-15.35Q13.38-14.68 13.38-13.71L13.38-13.71Q13.38-12.52 13.12-11.79Q12.86-11.06 12.38-10.64Q11.89-10.21 11.22-10.01Q10.55-9.80 9.73-9.68L9.73-9.68Q10.20-9.62 10.72-9.53Q11.24-9.43 11.75-9.23Q12.25-9.02 12.72-8.68Q13.18-8.33 13.53-7.80Q13.88-7.27 14.09-6.51Q14.30-5.76 14.30-4.73L14.30-4.73Q14.30-3.66 14.04-2.90Q13.79-2.13 13.31-1.61Q12.84-1.09 12.15-0.77Q11.46-0.45 10.58-0.28Q9.70-0.11 8.66-0.06Q7.61 0 6.44 0L6.44 0L1.72 0L1.72-17.73ZM3.90-1.61L6.44-1.61Q8.10-1.61 9.21-1.81Q10.33-2.01 11.01-2.44Q11.68-2.86 11.97-3.53Q12.25-4.20 12.25-5.13L12.25-5.13Q12.25-6.18 11.93-6.89Q11.61-7.60 10.94-8.03Q10.28-8.46 9.26-8.64Q8.24-8.83 6.85-8.83L6.85-8.83L3.90-8.83L3.90-1.61ZM3.90-16.13L3.90-10.28L6.81-10.28Q8.20-10.28 9.11-10.46Q10.03-10.64 10.56-11.03Q11.10-11.43 11.31-12.07Q11.52-12.70 11.52-13.61L11.52-13.61Q11.52-14.29 11.21-14.76Q10.90-15.24 10.23-15.54Q9.55-15.85 8.46-15.99Q7.37-16.13 5.82-16.13L5.82-16.13L3.90-16.13Z" transform="translate(223.6002890625 88.43994140625) " fill="rgb(255, 255, 255)" stroke="rgb(255, 255, 255)" stroke-width="0.038" data-glyph-w="42.32958984375" data-glyph-h="25.93115234375" data-glyph-ascender="19.43994140625" data-glyph-descender="-6.4912109375"/><path d="M12.27 0L1.72 0L1.72-17.73L3.90-17.73L3.90-1.61L12.27-1.61L12.27 0Z" transform="translate(265.92987890625 88.43994140625) " fill="rgb(255, 255, 255)" stroke="rgb(255, 255, 255)" stroke-width="0.038" data-glyph-w="40.251953125" data-glyph-h="25.93115234375" data-glyph-ascender="19.43994140625" data-glyph-descender="-6.4912109375"/><path d="M15.89-9.05L15.89-9.05Q15.89-7.82 15.76-6.63Q15.62-5.45 15.30-4.39Q14.98-3.32 14.44-2.43Q13.89-1.54 13.07-0.89Q12.25-0.25 11.12 0.12Q10.00 0.48 8.51 0.48L8.51 0.48Q7.02 0.48 5.88 0.11Q4.75-0.27 3.94-0.94Q3.12-1.62 2.58-2.54Q2.04-3.46 1.72-4.55Q1.40-5.64 1.27-6.84Q1.15-8.05 1.15-9.31L1.15-9.31Q1.15-11.34 1.62-12.97Q2.10-14.59 3.03-15.72Q3.96-16.86 5.34-17.46Q6.72-18.06 8.51-18.06L8.51-18.06Q10.32-18.06 11.70-17.45Q13.08-16.85 14.02-15.69Q14.95-14.53 15.42-12.86Q15.89-11.19 15.89-9.05ZM3.40-8.70L3.40-8.70Q3.40-4.93 4.71-3.09Q6.02-1.26 8.51-1.26L8.51-1.26Q9.68-1.26 10.62-1.66Q11.57-2.06 12.24-2.94Q12.90-3.83 13.26-5.25Q13.62-6.67 13.62-8.70L13.62-8.70Q13.62-10.74 13.29-12.19Q12.95-13.65 12.30-14.58Q11.66-15.51 10.72-15.95Q9.78-16.39 8.59-16.39L8.59-16.39Q7.36-16.39 6.39-15.96Q5.42-15.54 4.76-14.62Q4.10-13.70 3.75-12.24Q3.40-10.78 3.40-8.70Z" transform="translate(306.18183203125 88.43994140625) " fill="rgb(255, 255, 255)" stroke="rgb(255, 255, 255)" stroke-width="0.038" data-glyph-w="44.025390625" data-glyph-h="25.93115234375" data-glyph-ascender="19.43994140625" data-glyph-descender="-6.4912109375"/><path d="M13.09-4.48L13.09-7.68L8.48-7.68L8.48-9.11L15.07-9.11L15.07 0L14.08 0L13.49-2.39Q13.35-1.82 12.98-1.30Q12.61-0.79 11.98-0.39Q11.35 0 10.45 0.23Q9.55 0.46 8.36 0.46L8.36 0.46Q6.57 0.46 5.22-0.24Q3.87-0.93 2.97-2.17Q2.07-3.40 1.61-5.11Q1.16-6.82 1.16-8.83L1.16-8.83Q1.16-11.19 1.67-12.93Q2.19-14.67 3.17-15.81Q4.14-16.96 5.55-17.52Q6.95-18.08 8.73-18.08L8.73-18.08Q9.38-18.08 10.05-18.00Q10.73-17.91 11.38-17.73Q12.04-17.55 12.66-17.27Q13.29-16.98 13.85-16.58L13.85-16.58L13.11-15.06Q12.79-15.33 12.33-15.57Q11.87-15.80 11.29-15.98Q10.70-16.16 10.02-16.27Q9.34-16.37 8.59-16.37L8.59-16.37Q7.32-16.37 6.36-15.93Q5.39-15.49 4.73-14.57Q4.08-13.65 3.75-12.24Q3.41-10.83 3.41-8.89L3.41-8.89Q3.41-7.05 3.68-5.63Q3.95-4.21 4.56-3.23Q5.17-2.26 6.15-1.75Q7.14-1.25 8.58-1.25L8.58-1.25Q9.55-1.25 10.37-1.42Q11.20-1.58 11.80-1.97Q12.41-2.36 12.75-2.97Q13.09-3.58 13.09-4.48L13.09-4.48Z" transform="translate(350.20722265625 88.43994140625) " fill="rgb(255, 255, 255)" stroke="rgb(255, 255, 255)" stroke-width="0.038" data-glyph-w="43.49755859375" data-glyph-h="25.93115234375" data-glyph-ascender="19.43994140625" data-glyph-descender="-6.4912109375"/></g></svg></g></g><g id="shape_BrlP5md58v" transform="translate(416.9808521379017,-182.9653921154626) rotate(0,268.2492859696282,288) scale(1,1)" filter="" style="opacity: 1;"><g><svg xmlns="http://www.w3.org/2000/svg" xmlns:xlink="http://www.w3.org/1999/xlink" version="1.1" width="696.4985719392564" height="576" viewBox="0 0 696.4985719392564 576" data-parent="shape_BrlP5md58v"><g data-width="160" transform="translate(188.24928596962818, 0)"><path d="M71.52-59.52L71.52-59.52L70.16-57.44Q67.92-58.72 64.60-60.60Q61.28-62.48 58.16-64.08L58.16-64.08L59.52-65.84Q62.56-64.32 65.92-62.56Q69.28-60.80 71.52-59.52ZM68.88-39.52L68.88-46.08L52.40-46.08L52.40-39.52L68.88-39.52ZM52.40-37.12L52.40-30.96L68.88-30.96L68.88-37.12L52.40-37.12ZM33.60-37.12L33.60-30.96L50.08-30.96L50.08-37.12L33.60-37.12ZM50.08-39.52L50.08-46.08L33.60-46.08L33.60-39.52L50.08-39.52ZM31.28-48.40L50.08-48.40L50.08-54.32L26.72-54.32L26.72-56.72L50.08-56.72L50.08-66.40L52.40-66.40L52.40-56.72L75.52-56.72L75.52-54.32L52.40-54.32L52.40-48.40L71.20-48.40L71.20-21.92L68.88-21.92L68.88-28.56L52.40-28.56L52.40-22.24L50.08-22.24L50.08-28.56L33.60-28.56L33.60-21.92L31.28-21.92L31.28-48.40ZM26.96-44.16L26.96-41.76L17.36-41.76L17.36 5.60L15.04 5.60L15.04-41.76L4-41.76L4-44.16L15.04-44.16L15.04-66.32L17.36-66.32L17.36-44.16L26.96-44.16ZM33.76-10.48L33.76-10.48L35.52-11.76Q38.48-9.12 41.64-6.20Q44.80-3.28 46.80-1.20L46.80-1.20L44.88 0.48Q42.88-1.76 39.80-4.80Q36.72-7.84 33.76-10.48ZM63.36-16.96L76.40-16.96L76.40-14.56L63.36-14.56L63.36 1.84Q63.36 3.36 62.92 4.08Q62.48 4.80 61.28 5.12L61.28 5.12Q59.04 5.52 50.48 5.52L50.48 5.52Q50.16 4.56 49.60 3.52L49.60 3.52Q49.52 3.44 49.44 3.28L49.44 3.28Q57.60 3.36 59.60 3.28L59.60 3.28Q60.48 3.20 60.76 2.92Q61.04 2.64 61.04 1.92L61.04 1.92L61.04-14.56L24.80-14.56L24.80-16.96L61.04-16.96L61.04-22.80L63.36-22.80L63.36-16.96Z" transform="translate(0 318) " fill="#D9D9D9" stroke="#D9D9D9" stroke-width="0.133" data-glyph-w="80" data-glyph-h="80" data-glyph-ascender="70.4" data-glyph-descender="-9.6"/><path d="M45.84-56.08L45.84-56.08L43.68-55.28Q42.88-57.44 41.52-60.24Q40.16-63.04 38.88-65.60L38.88-65.60L40.96-66.32Q42.40-63.76 43.76-60.96Q45.12-58.16 45.84-56.08ZM12.32-53.92L75.20-53.92L75.20-51.60L14.64-51.60L14.64-32.64Q14.64-26.88 14.04-20.04Q13.44-13.20 11.56-6.40Q9.68 0.40 5.92 6.24L5.92 6.24Q5.60 5.84 5.08 5.36Q4.56 4.88 4.08 4.64L4.08 4.64Q7.68-0.96 9.48-7.48Q11.28-14 11.80-20.52Q12.32-27.04 12.32-32.64L12.32-32.64L12.32-53.92Z" transform="translate(80 318) " fill="#D9D9D9" stroke="#D9D9D9" stroke-width="0.133" data-glyph-w="80" data-glyph-h="80" data-glyph-ascender="70.4" data-glyph-descender="-9.6"/></g></svg></g></g><g id="shape_uCjSNYyDDP" transform="translate(421.10864006494006,-8.965392115462606) rotate(0,268.2492859696282,288) scale(1,1)" filter="" style="opacity: 1;"><g><svg xmlns="http://www.w3.org/2000/svg" xmlns:xlink="http://www.w3.org/1999/xlink" version="1.1" width="696.4985719392564" height="576" viewBox="0 0 696.4985719392564 576" data-parent="shape_uCjSNYyDDP"><g data-width="160" transform="translate(188.24928596962818, 0)"><path d="M4.16-0.08L4.16-0.08L3.60-2.48Q9.20-3.68 16.96-5.44L16.96-5.44Q23.76-6.96 31.04-8.56L31.04-8.56L31.20-6.40Q24.48-4.80 18-3.28L18-3.28Q10.16-1.52 4.16-0.08ZM9.36-19.76L9.36-19.76L31.20-23.52Q31.20-23.04 31.24-22.44Q31.28-21.84 31.36-21.36L31.36-21.36Q22.88-19.76 17.76-18.80Q12.64-17.84 10.04-17.32Q7.44-16.80 6.36-16.48Q5.28-16.16 4.88-15.84L4.88-15.84Q4.72-16.32 4.48-17.12Q4.24-17.92 4-18.48L4-18.48Q6.16-19.12 9.92-23.68L9.92-23.68Q11.28-25.12 14.20-28.72Q17.12-32.32 20.64-37.20L20.64-37.20Q15.68-36.56 12.60-36.16Q9.52-35.76 7.88-35.52Q6.24-35.28 5.48-35.12Q4.72-34.96 4.40-34.80L4.40-34.80Q4.24-35.28 4-36.04Q3.76-36.80 3.52-37.36L3.52-37.36Q5.36-38 7.76-42.40L7.76-42.40Q9.36-44.64 12.84-51.24Q16.32-57.84 19.20-65.36L19.20-65.36L21.60-64.32Q15.44-49.52 7.76-38.16L7.76-38.16L22.32-39.60Q22.80-40.40 23.28-41.12L23.28-41.12Q25.68-44.64 27.68-48.32L27.68-48.32L30.08-47.12Q20.24-31.44 9.36-19.76ZM68.80-0.16L68.80-21.20L38.88-21.20L38.88-0.16L68.80-0.16ZM38.88 5.60L36.56 5.60L36.56-23.52L71.12-23.52L71.12 5.28L68.80 5.28L68.80 2.16L38.88 2.16L38.88 5.60ZM74.40-54.80L74.40-52.48L54.80-52.48L54.80-36.32L73.52-36.32L73.52-34L34.40-34L34.40-36.32L52.48-36.32L52.48-52.48L32.40-52.48L32.40-54.80L52.48-54.80L52.48-66.48L54.80-66.48L54.80-54.80L74.40-54.80Z" transform="translate(0 318) " fill="#d9d9d9" stroke="#d9d9d9" stroke-width="0.133" data-glyph-w="80" data-glyph-h="80" data-glyph-ascender="70.4" data-glyph-descender="-9.6"/><path d="M70.72-56.16L9.12-56.16L9.12-46L6.80-46L6.80-58.48L40.96-58.48Q39.04-62.40 36.32-66.16L36.32-66.16L38.40-66.88Q39.84-64.96 41.28-62.68Q42.72-60.40 43.68-58.48L43.68-58.48L73.04-58.48L73.04-46L70.72-46L70.72-56.16ZM58.56 0.24L58.56-16.32L22.16-16.32L22.16 0.24L58.56 0.24ZM22.16 5.44L19.84 5.44L19.84-18.64L60.88-18.64L60.88 5.44L58.56 5.44L58.56 2.56L22.16 2.56L22.16 5.44ZM56.24-44.24L25.84-44.16Q31.28-36.72 40.24-31.12L40.24-31.12Q50.08-36.88 56.24-44.24L56.24-44.24ZM58.16-46.56L58.72-46.72L60.24-45.52Q53.68-36.48 42.40-29.84L42.40-29.84Q57.44-21.44 76.32-18.48L76.32-18.48Q75.44-17.60 74.88-16.40L74.88-16.40Q55.76-19.60 40.32-28.56L40.32-28.56Q22.88-19.04 4.88-15.12L4.88-15.12Q4.72-15.68 4.36-16.28Q4-16.88 3.60-17.28L3.60-17.28Q21.12-20.88 38.08-29.92L38.08-29.92Q29.52-35.44 24.16-42.48L24.16-42.48Q17.84-36.64 9.04-31.84L9.04-31.84Q8.32-32.80 7.28-33.36L7.28-33.36Q15.44-37.60 21.32-42.92Q27.20-48.24 30.40-53.20L30.40-53.20L33.04-52.72Q31.04-49.68 28.16-46.56L28.16-46.56L58.16-46.56Z" transform="translate(80 318) " fill="#d9d9d9" stroke="#d9d9d9" stroke-width="0.133" data-glyph-w="80" data-glyph-h="80" data-glyph-ascender="70.4" data-glyph-descender="-9.6"/></g></svg></g></g></svg>
