<?xml version="1.0"?>
<svg xmlns="http://www.w3.org/2000/svg" xmlns:xlink="http://www.w3.org/1999/xlink" data-noselect="" viewBox="0 0 900 300" width="900" height="300" preserveAspectRatio="none" version="1.1" class="svg-canvas"><defs><filter id="filter_shadow_shape_UVjmto23y6" width="300%" height="300%" x="-100%" y="-100%">
              <feDropShadow dx="0" dy="0" stdDeviation="13.200000000000001" flood-color="#FFFFFF" flood-opacity="1"/>
            </filter></defs> <g id="background" data-noselect=""><rect fill="#000000" width="900" height="300" data-noselect=""/> <!----></g> <g id="shape_mgMTNFwhIn" transform="translate(408.97349539731,-72.512484558095) rotate(0,225.28110692197,225.28110692197) scale(1,1)" filter="" style="opacity: 0.39;"><g><svg xmlns="http://www.w3.org/2000/svg" xmlns:xlink="http://www.w3.org/1999/xlink" width="450.56221384391995" height="450.56221384391995" viewBox="1.5700487097927485 1.5700487097927485 96.8599025804145 96.8599025804145" version="1.1" class="style-removed" preserveAspectRatio="none" data-parent="shape_mgMTNFwhIn">
    <title>&#x6B63;&#x5706;</title>
    <g id="&#x7F16;&#x8F91;&#x5668;_bZlZj6V3nb" stroke="none" stroke-width="1" fill="none" fill-rule="evenodd">
        <g id="&#x753B;&#x677F;_RxnmJ9fwcb" transform="translate(-517.000000, -122.000000)" stroke="#000000" stroke-width="4">
            <circle id="&#x6B63;&#x5706;_fyODmJTBk4" cx="567" cy="172" r="48" stroke="#ffe8bb" stroke-width="0.21497564510362582" stroke-dasharray=""/>
        </g>
    </g>
</svg></g></g><g id="shape_Y1Ge4NPhe5" transform="translate(482.24526474177,0.7592552086376001) rotate(0,152.00936123969,152.00936123969) scale(1,1)" filter="" style="opacity: 0.39;"><g><svg xmlns="http://www.w3.org/2000/svg" xmlns:xlink="http://www.w3.org/1999/xlink" width="304.01872247937" height="304.01872247937" viewBox="1.3600399387968118 1.3600399387968118 97.27992012240638 97.27992012240638" version="1.1" class="style-removed" preserveAspectRatio="none" data-parent="shape_Y1Ge4NPhe5">
    <title>&#x6B63;&#x5706;</title>
    <g id="&#x7F16;&#x8F91;&#x5668;_bZlZj6V3nb" stroke="none" stroke-width="1" fill="none" fill-rule="evenodd">
        <g id="&#x753B;&#x677F;_RxnmJ9fwcb" transform="translate(-517.000000, -122.000000)" stroke="#000000" stroke-width="4">
            <circle id="&#x6B63;&#x5706;_fyODmJTBk4" cx="567" cy="172" r="48" stroke="#ffe8bb" stroke-width="0.31998003060159413" stroke-dasharray=""/>
        </g>
    </g>
</svg></g></g><g id="shape_v26fidZO1b" transform="translate(486.37751130924,4.8915017761113) rotate(0,147.87711467221,147.87711467221) scale(1,1)" filter="" style="opacity: 1;"><g><svg xmlns="http://www.w3.org/2000/svg" xmlns:xlink="http://www.w3.org/1999/xlink" version="1.1" id="&#x56FE;&#x5C42;_1" x="0px" y="0px" width="295.75422934442" height="295.75422934442" viewBox="2 2 197 197" style="enable-background:new 0 0 200 200;" xml:space="preserve" class="style-removed" preserveAspectRatio="none" data-parent="shape_v26fidZO1b">

<g>
	<radialGradient id="SVGID_1__JG6x22QtnL" cx="100.5" cy="100.5" r="98.5" gradientUnits="userSpaceOnUse">
		<stop offset="0" stop-color="#ffe8bb"/>
		<stop offset="0.8481" stop-color="#ffe8bb" stop-opacity="0.1325"/>
		<stop offset="0.9777" stop-color="#ffe8bb" stop-opacity="0"/>
	</radialGradient>
	<circle cx="100.5" cy="100.5" r="98.5" fill="url(#SVGID_1__JG6x22QtnL)" stroke-width="0"/>
</g>
</svg></g></g><g id="shape_qbX2mJtdVw" transform="translate(534.04823878126,52.438853282509) rotate(0,100.206363538,100.206363538) scale(1,1)" filter="" style="opacity: 0.23;"><g><svg xmlns="http://www.w3.org/2000/svg" xmlns:xlink="http://www.w3.org/1999/xlink" version="1.1" id="&#x56FE;&#x5C42;_1" x="0px" y="0px" width="200.41272707601" height="200.41272707601" viewBox="2 2 197 197" style="enable-background:new 0 0 200 200;" xml:space="preserve" class="style-removed" preserveAspectRatio="none" data-parent="shape_qbX2mJtdVw">

<g>
	<radialGradient id="SVGID_1__F7t2dZZKHb" cx="100.5" cy="100.5" r="98.5" gradientUnits="userSpaceOnUse">
		<stop offset="0" stop-color="#ffffff"/>
		<stop offset="0.8481" stop-color="#ffffff" stop-opacity="0.1325"/>
		<stop offset="0.9777" stop-color="#ffffff" stop-opacity="0"/>
	</radialGradient>
	<circle cx="100.5" cy="100.5" r="98.5" fill="url(#SVGID_1__F7t2dZZKHb)" stroke-width="0"/>
</g>
</svg></g></g><g id="shape_UVjmto23y6" transform="translate(579.79463174393,98.185246245172) rotate(0,54.458740141863,54.458740141863) scale(1,1)" filter="url(#filter_shadow_shape_UVjmto23y6)" style="opacity: 1;"><g><svg xmlns="http://www.w3.org/2000/svg" xmlns:xlink="http://www.w3.org/1999/xlink" version="1.1" id="&#x56FE;&#x5C42;_1" x="0px" y="0px" width="108.91748028373" height="108.91748028373" viewBox="1 1 100 100" style="enable-background:new 0 0 102 102;" xml:space="preserve" class="style-removed" preserveAspectRatio="none" data-parent="shape_UVjmto23y6">
<circle cx="51" cy="51" r="50" fill="#000000" stroke-width="0"/>
</svg></g></g><g id="shape_mcPKvHymMu" transform="translate(579.79463174393,98.185254713381) rotate(0,54.458740141863,54.458740141863) scale(1,1)" filter="" style="opacity: 0.7;"><g><svg xmlns="http://www.w3.org/2000/svg" xmlns:xlink="http://www.w3.org/1999/xlink" version="1.1" id="&#x56FE;&#x5C42;_1" x="0px" y="0px" width="108.91748028373" height="108.91748028373" viewBox="2 2 197 197" style="enable-background:new 0 0 200 200;" xml:space="preserve" class="style-removed" preserveAspectRatio="none" data-parent="shape_mcPKvHymMu">

<g>
	<radialGradient id="SVGID_1__x7Wrg5gbmi" cx="100.5" cy="100.5" r="98.5" gradientUnits="userSpaceOnUse">
		<stop offset="0.2011" stop-color="#5d4d2c" stop-opacity="0"/>
		<stop offset="0.9832" stop-color="#5d4d2c"/>
	</radialGradient>
	<circle cx="100.5" cy="100.5" r="98.5" fill="url(#SVGID_1__x7Wrg5gbmi)" stroke-width="0"/>
</g>
</svg></g></g><g id="shape_I7l9RhOmnm" transform="translate(93.98114208432,23.52306100616501) rotate(0,213.738953642345,88.35) scale(1,1)" filter="" style="opacity: 1;"><g><svg xmlns="http://www.w3.org/2000/svg" xmlns:xlink="http://www.w3.org/1999/xlink" version="1.1" width="460.37790728468997" height="176.7" viewBox="0 0 460.37790728468997 176.7"><g data-width="194.26666666666662" transform="translate(16.45, 0)"><path d="M6.74-13.57L6.74-13.57L9.03-13.34Q9.01-13.16 8.88-13.04Q8.75-12.93 8.44-12.88L8.44-12.88Q8.59-9.79 9.29-7.39Q10.00-5.00 11.59-3.25Q13.18-1.50 15.97-0.35L15.97-0.35L15.94-0.16Q14.72 0.05 14.38 1.33L14.38 1.33Q11.24-0.41 9.91-3.26Q8.59-6.10 8.32-9.95L8.32-9.95Q8.21-7.88 7.58-5.85Q6.96-3.82 5.37-1.97Q3.78-0.13 0.79 1.38L0.79 1.38L0.59 1.14Q3.60-0.97 4.91-3.34Q6.22-5.71 6.51-8.22Q6.79-10.73 6.74-13.26L6.74-13.26Q6.74-13.41 6.74-13.57Z" transform="translate(0 69.35) " fill="rgb(255, 255, 255)" stroke="rgb(255, 255, 255)" stroke-width="0.027" data-glyph-w="24.283333333333324" data-glyph-h="23.63865" data-glyph-ascender="18.93395" data-glyph-descender="-4.7047"/><path d="M0.82-6.46L0.66-7.01L12.45-7.01L13.67-8.67Q13.67-8.67 14.05-8.35Q14.43-8.03 14.94-7.58Q15.45-7.14 15.89-6.73L15.89-6.73Q15.78-6.46 15.38-6.46L15.38-6.46L0.82-6.46Z" transform="translate(24.283333333333324 69.35) " fill="rgb(255, 255, 255)" stroke="rgb(255, 255, 255)" stroke-width="0.027" data-glyph-w="24.283333333333324" data-glyph-h="23.63865" data-glyph-ascender="18.93395" data-glyph-descender="-4.7047"/><path d="M5.66-13.75L5.66-13.75L5.82-13.87Q8.06-13.24 8.65-12.26Q9.24-11.27 8.79-10.65Q8.34-10.03 7.47-10.56L7.47-10.56Q7.30-11.42 6.79-12.28Q6.27-13.14 5.66-13.75ZM4.29-2.42L4.29-2.42L4.36-2.37Q5.35-1.38 6.85-1.05Q8.36-0.72 10.84-0.72L10.84-0.72Q13.54-0.72 15.89-0.82L15.89-0.82L15.89-0.63Q14.82-0.31 14.69 0.90L14.69 0.90L10.28 0.90Q7.78 0.90 6.45 0.30Q5.12-0.31 4.11-1.79L4.11-1.79Q3.82-2.25 3.55-1.79L3.55-1.79Q3.36-1.50 3.04-1.02L3.04-1.02Q2.43-0.10 1.86 0.82L1.86 0.82Q1.89 0.94 1.84 1.03Q1.79 1.12 1.71 1.20L1.71 1.20L0.44-0.66Q1.07-1.02 1.81-1.51L1.81-1.51Q2.47-1.94 3.01-2.27Q3.55-2.60 3.75-2.60L3.75-2.60L3.83-2.60Q6.19-3.90 8.34-5.70Q10.50-7.50 11.83-9.41L11.83-9.41L1.53-9.41L1.38-9.89L11.93-9.89L12.93-10.81L14.49-9.36Q14.39-9.24 14.24-9.20Q14.08-9.15 13.75-9.13L13.75-9.13Q10.46-4.87 4.29-2.42Z" transform="translate(48.56666666666665 69.35) " fill="rgb(255, 255, 255)" stroke="rgb(255, 255, 255)" stroke-width="0.027" data-glyph-w="24.283333333333324" data-glyph-h="23.63865" data-glyph-ascender="18.93395" data-glyph-descender="-4.7047"/><path d="M1.28 3.49L1.28 3.49L1.02 3.01Q1.97 2.47 2.39 1.82Q2.80 1.17 2.86 0.59L2.86 0.59Q2.50 0.48 2.11 0.30Q1.73 0.12 1.45-0.19Q1.17-0.49 1.17-0.99L1.17-0.99Q1.17-1.46 1.51-1.83Q1.84-2.19 2.42-2.19L2.42-2.19Q3.04-2.19 3.43-1.73Q3.82-1.27 3.82-0.49L3.82-0.49Q3.82 0.20 3.58 0.95Q3.34 1.71 2.78 2.38Q2.22 3.04 1.28 3.49Z" transform="translate(72.84999999999997 69.35) " fill="rgb(255, 255, 255)" stroke="rgb(255, 255, 255)" stroke-width="0.027" data-glyph-w="24.283333333333324" data-glyph-h="23.63865" data-glyph-ascender="18.93395" data-glyph-descender="-4.7047"/><path d="M14.53-3.87L14.72-3.87L14.74-1.04Q15.27-0.89 15.47-0.76Q15.68-0.64 15.68-0.36L15.68-0.36Q15.68 0.02 15.38 0.30Q15.08 0.58 14.29 0.72Q13.49 0.87 11.98 0.87L11.98 0.87L5.31 0.87Q3.67 0.87 2.90 0.39Q2.14-0.08 2.14-1.43L2.14-1.43L2.14-8.27L3.96-7.58L11.60-7.58L11.60-12.11L2.15-12.11L2.01-12.58L11.42-12.58L12.24-13.47L13.97-12.14Q13.77-11.91 13.21-11.76L13.21-11.76L13.21-6.09Q13.19-6.02 12.97-5.93Q12.75-5.84 12.44-5.76Q12.12-5.68 11.86-5.68L11.86-5.68L11.60-5.68L11.60-7.11L3.75-7.11L3.75-1.37Q3.75-0.94 4.12-0.80Q4.49-0.66 5.21-0.66L5.21-0.66L11.83-0.66Q12.62-0.66 13.01-0.76Q13.41-0.86 13.60-1.18L13.60-1.18Q13.82-1.53 14.07-2.29Q14.33-3.06 14.53-3.87L14.53-3.87Z" transform="translate(97.1333333333333 69.35) " fill="rgb(255, 255, 255)" stroke="rgb(255, 255, 255)" stroke-width="0.027" data-glyph-w="24.283333333333324" data-glyph-h="23.63865" data-glyph-ascender="18.93395" data-glyph-descender="-4.7047"/><path d="M11.81-4.95L11.81-8.52L4.72-8.52L4.72-4.95L11.81-4.95ZM4.72-4.47L4.72-0.56L11.81-0.56L11.81-4.47L4.72-4.47ZM0.95-12.39L12.68-12.39L13.69-13.64Q13.69-13.64 14.01-13.40Q14.33-13.16 14.76-12.83Q15.18-12.50 15.55-12.17L15.55-12.17Q15.45-11.91 15.10-11.91L15.10-11.91L8.93-11.91Q8.13-10.26 7.21-9.00L7.21-9.00L11.65-9.00L12.45-9.89L14.10-8.59Q13.93-8.37 13.42-8.24L13.42-8.24L13.42 0.76Q13.41 0.82 13.19 0.94Q12.98 1.05 12.67 1.14Q12.35 1.23 12.07 1.23L12.07 1.23L11.81 1.23L11.81-0.08L4.72-0.08L4.72 0.77Q4.72 0.90 4.32 1.12Q3.92 1.33 3.39 1.33L3.39 1.33L3.14 1.33L3.14-9.72L4.84-9.00L6.63-9.00Q6.73-9.61 6.83-10.40Q6.93-11.19 7.01-11.91L7.01-11.91L1.10-11.91L0.95-12.39Z" transform="translate(121.41666666666663 69.35) " fill="rgb(255, 255, 255)" stroke="rgb(255, 255, 255)" stroke-width="0.027" data-glyph-w="24.283333333333324" data-glyph-h="23.63865" data-glyph-ascender="18.93395" data-glyph-descender="-4.7047"/><path d="M5.66-13.75L5.66-13.75L5.82-13.87Q8.06-13.24 8.65-12.26Q9.24-11.27 8.79-10.65Q8.34-10.03 7.47-10.56L7.47-10.56Q7.30-11.42 6.79-12.28Q6.27-13.14 5.66-13.75ZM4.29-2.42L4.29-2.42L4.36-2.37Q5.35-1.38 6.85-1.05Q8.36-0.72 10.84-0.72L10.84-0.72Q13.54-0.72 15.89-0.82L15.89-0.82L15.89-0.63Q14.82-0.31 14.69 0.90L14.69 0.90L10.28 0.90Q7.78 0.90 6.45 0.30Q5.12-0.31 4.11-1.79L4.11-1.79Q3.82-2.25 3.55-1.79L3.55-1.79Q3.36-1.50 3.04-1.02L3.04-1.02Q2.43-0.10 1.86 0.82L1.86 0.82Q1.89 0.94 1.84 1.03Q1.79 1.12 1.71 1.20L1.71 1.20L0.44-0.66Q1.07-1.02 1.81-1.51L1.81-1.51Q2.47-1.94 3.01-2.27Q3.55-2.60 3.75-2.60L3.75-2.60L3.83-2.60Q6.19-3.90 8.34-5.70Q10.50-7.50 11.83-9.41L11.83-9.41L1.53-9.41L1.38-9.89L11.93-9.89L12.93-10.81L14.49-9.36Q14.39-9.24 14.24-9.20Q14.08-9.15 13.75-9.13L13.75-9.13Q10.46-4.87 4.29-2.42Z" transform="translate(145.69999999999996 69.35) " fill="rgb(255, 255, 255)" stroke="rgb(255, 255, 255)" stroke-width="0.027" data-glyph-w="24.283333333333324" data-glyph-h="23.63865" data-glyph-ascender="18.93395" data-glyph-descender="-4.7047"/><path d="M1.28 3.49L1.28 3.49L1.02 3.01Q1.97 2.47 2.39 1.82Q2.80 1.17 2.86 0.59L2.86 0.59Q2.50 0.48 2.11 0.30Q1.73 0.12 1.45-0.19Q1.17-0.49 1.17-0.99L1.17-0.99Q1.17-1.46 1.51-1.83Q1.84-2.19 2.42-2.19L2.42-2.19Q3.04-2.19 3.43-1.73Q3.82-1.27 3.82-0.49L3.82-0.49Q3.82 0.20 3.58 0.95Q3.34 1.71 2.78 2.38Q2.22 3.04 1.28 3.49Z" transform="translate(169.9833333333333 69.35) " fill="rgb(255, 255, 255)" stroke="rgb(255, 255, 255)" stroke-width="0.027" data-glyph-w="24.283333333333324" data-glyph-h="23.63865" data-glyph-ascender="18.93395" data-glyph-descender="-4.7047"/></g><g data-width="194.26666666666662" transform="translate(16.45, 0)"><path d="M6.74-13.57L6.74-13.57L9.03-13.34Q9.01-13.16 8.88-13.04Q8.75-12.93 8.44-12.88L8.44-12.88Q8.59-9.79 9.29-7.39Q10.00-5.00 11.59-3.25Q13.18-1.50 15.97-0.35L15.97-0.35L15.94-0.16Q14.72 0.05 14.38 1.33L14.38 1.33Q11.24-0.41 9.91-3.26Q8.59-6.10 8.32-9.95L8.32-9.95Q8.21-7.88 7.58-5.85Q6.96-3.82 5.37-1.97Q3.78-0.13 0.79 1.38L0.79 1.38L0.59 1.14Q3.60-0.97 4.91-3.34Q6.22-5.71 6.51-8.22Q6.79-10.73 6.74-13.26L6.74-13.26Q6.74-13.41 6.74-13.57Z" transform="translate(0 95.35) " fill="rgb(255, 255, 255)" stroke="rgb(255, 255, 255)" stroke-width="0.027" data-glyph-w="24.283333333333324" data-glyph-h="23.63865" data-glyph-ascender="18.93395" data-glyph-descender="-4.7047"/><path d="M9.01-7.75L12.86-7.75L13.93-9.18Q13.93-9.18 14.27-8.91Q14.61-8.64 15.05-8.26Q15.50-7.88 15.86-7.53L15.86-7.53Q15.78-7.27 15.40-7.27L15.40-7.27L9.01-7.27L9.01 0.72Q9.01 0.87 8.58 1.10Q8.14 1.33 7.63 1.33L7.63 1.33L7.32 1.33L7.32-7.27L0.76-7.27L0.61-7.75L7.32-7.75L7.32-13.80L9.69-13.57Q9.67-13.36 9.52-13.23Q9.38-13.09 9.01-13.03L9.01-13.03L9.01-7.75Z" transform="translate(24.283333333333324 95.35) " fill="rgb(255, 255, 255)" stroke="rgb(255, 255, 255)" stroke-width="0.027" data-glyph-w="24.283333333333324" data-glyph-h="23.63865" data-glyph-ascender="18.93395" data-glyph-descender="-4.7047"/><path d="M5.66-13.75L5.66-13.75L5.82-13.87Q8.06-13.24 8.65-12.26Q9.24-11.27 8.79-10.65Q8.34-10.03 7.47-10.56L7.47-10.56Q7.30-11.42 6.79-12.28Q6.27-13.14 5.66-13.75ZM4.29-2.42L4.29-2.42L4.36-2.37Q5.35-1.38 6.85-1.05Q8.36-0.72 10.84-0.72L10.84-0.72Q13.54-0.72 15.89-0.82L15.89-0.82L15.89-0.63Q14.82-0.31 14.69 0.90L14.69 0.90L10.28 0.90Q7.78 0.90 6.45 0.30Q5.12-0.31 4.11-1.79L4.11-1.79Q3.82-2.25 3.55-1.79L3.55-1.79Q3.36-1.50 3.04-1.02L3.04-1.02Q2.43-0.10 1.86 0.82L1.86 0.82Q1.89 0.94 1.84 1.03Q1.79 1.12 1.71 1.20L1.71 1.20L0.44-0.66Q1.07-1.02 1.81-1.51L1.81-1.51Q2.47-1.94 3.01-2.27Q3.55-2.60 3.75-2.60L3.75-2.60L3.83-2.60Q6.19-3.90 8.34-5.70Q10.50-7.50 11.83-9.41L11.83-9.41L1.53-9.41L1.38-9.89L11.93-9.89L12.93-10.81L14.49-9.36Q14.39-9.24 14.24-9.20Q14.08-9.15 13.75-9.13L13.75-9.13Q10.46-4.87 4.29-2.42Z" transform="translate(48.56666666666665 95.35) " fill="rgb(255, 255, 255)" stroke="rgb(255, 255, 255)" stroke-width="0.027" data-glyph-w="24.283333333333324" data-glyph-h="23.63865" data-glyph-ascender="18.93395" data-glyph-descender="-4.7047"/><path d="M1.28 3.49L1.28 3.49L1.02 3.01Q1.97 2.47 2.39 1.82Q2.80 1.17 2.86 0.59L2.86 0.59Q2.50 0.48 2.11 0.30Q1.73 0.12 1.45-0.19Q1.17-0.49 1.17-0.99L1.17-0.99Q1.17-1.46 1.51-1.83Q1.84-2.19 2.42-2.19L2.42-2.19Q3.04-2.19 3.43-1.73Q3.82-1.27 3.82-0.49L3.82-0.49Q3.82 0.20 3.58 0.95Q3.34 1.71 2.78 2.38Q2.22 3.04 1.28 3.49Z" transform="translate(72.84999999999997 95.35) " fill="rgb(255, 255, 255)" stroke="rgb(255, 255, 255)" stroke-width="0.027" data-glyph-w="24.283333333333324" data-glyph-h="23.63865" data-glyph-ascender="18.93395" data-glyph-descender="-4.7047"/><path d="M14.53-3.87L14.72-3.87L14.74-1.04Q15.27-0.89 15.47-0.76Q15.68-0.64 15.68-0.36L15.68-0.36Q15.68 0.02 15.38 0.30Q15.08 0.58 14.29 0.72Q13.49 0.87 11.98 0.87L11.98 0.87L5.31 0.87Q3.67 0.87 2.90 0.39Q2.14-0.08 2.14-1.43L2.14-1.43L2.14-8.27L3.96-7.58L11.60-7.58L11.60-12.11L2.15-12.11L2.01-12.58L11.42-12.58L12.24-13.47L13.97-12.14Q13.77-11.91 13.21-11.76L13.21-11.76L13.21-6.09Q13.19-6.02 12.97-5.93Q12.75-5.84 12.44-5.76Q12.12-5.68 11.86-5.68L11.86-5.68L11.60-5.68L11.60-7.11L3.75-7.11L3.75-1.37Q3.75-0.94 4.12-0.80Q4.49-0.66 5.21-0.66L5.21-0.66L11.83-0.66Q12.62-0.66 13.01-0.76Q13.41-0.86 13.60-1.18L13.60-1.18Q13.82-1.53 14.07-2.29Q14.33-3.06 14.53-3.87L14.53-3.87Z" transform="translate(97.1333333333333 95.35) " fill="rgb(255, 255, 255)" stroke="rgb(255, 255, 255)" stroke-width="0.027" data-glyph-w="24.283333333333324" data-glyph-h="23.63865" data-glyph-ascender="18.93395" data-glyph-descender="-4.7047"/><path d="M9.06-7.16L12.93-7.16L14.00-8.54Q14.00-8.54 14.33-8.28Q14.66-8.03 15.09-7.66Q15.53-7.29 15.91-6.94L15.91-6.94Q15.79-6.68 15.45-6.68L15.45-6.68L9.06-6.68L9.06 0.90Q9.06 0.99 8.69 1.19Q8.31 1.40 7.68 1.40L7.68 1.40L7.37 1.40L7.37-6.68L0.82-6.68L0.69-7.16L7.37-7.16L7.37-11.33Q4.61-11.05 1.89-11.05L1.89-11.05L1.84-11.33Q4.75-11.66 7.69-12.34Q10.63-13.01 12.47-13.74L12.47-13.74L14.13-12.17Q13.88-11.94 13.11-12.19L13.11-12.19Q11.35-11.81 9.06-11.51L9.06-11.51L9.06-7.16Z" transform="translate(121.41666666666663 95.35) " fill="rgb(255, 255, 255)" stroke="rgb(255, 255, 255)" stroke-width="0.027" data-glyph-w="24.283333333333324" data-glyph-h="23.63865" data-glyph-ascender="18.93395" data-glyph-descender="-4.7047"/><path d="M5.66-13.75L5.66-13.75L5.82-13.87Q8.06-13.24 8.65-12.26Q9.24-11.27 8.79-10.65Q8.34-10.03 7.47-10.56L7.47-10.56Q7.30-11.42 6.79-12.28Q6.27-13.14 5.66-13.75ZM4.29-2.42L4.29-2.42L4.36-2.37Q5.35-1.38 6.85-1.05Q8.36-0.72 10.84-0.72L10.84-0.72Q13.54-0.72 15.89-0.82L15.89-0.82L15.89-0.63Q14.82-0.31 14.69 0.90L14.69 0.90L10.28 0.90Q7.78 0.90 6.45 0.30Q5.12-0.31 4.11-1.79L4.11-1.79Q3.82-2.25 3.55-1.79L3.55-1.79Q3.36-1.50 3.04-1.02L3.04-1.02Q2.43-0.10 1.86 0.82L1.86 0.82Q1.89 0.94 1.84 1.03Q1.79 1.12 1.71 1.20L1.71 1.20L0.44-0.66Q1.07-1.02 1.81-1.51L1.81-1.51Q2.47-1.94 3.01-2.27Q3.55-2.60 3.75-2.60L3.75-2.60L3.83-2.60Q6.19-3.90 8.34-5.70Q10.50-7.50 11.83-9.41L11.83-9.41L1.53-9.41L1.38-9.89L11.93-9.89L12.93-10.81L14.49-9.36Q14.39-9.24 14.24-9.20Q14.08-9.15 13.75-9.13L13.75-9.13Q10.46-4.87 4.29-2.42Z" transform="translate(145.69999999999996 95.35) " fill="rgb(255, 255, 255)" stroke="rgb(255, 255, 255)" stroke-width="0.027" data-glyph-w="24.283333333333324" data-glyph-h="23.63865" data-glyph-ascender="18.93395" data-glyph-descender="-4.7047"/><path d="M3.01 1.37L3.01 1.37Q2.06 1.37 1.37 0.67Q0.67-0.02 0.67-0.97L0.67-0.97Q0.67-1.94 1.37-2.62Q2.06-3.29 3.01-3.29L3.01-3.29Q3.98-3.29 4.66-2.62Q5.33-1.94 5.33-0.97L5.33-0.97Q5.33-0.02 4.66 0.67Q3.98 1.37 3.01 1.37ZM3.01-2.70L3.01-2.70Q2.29-2.70 1.78-2.20Q1.27-1.69 1.27-0.97L1.27-0.97Q1.27-0.26 1.78 0.25Q2.29 0.77 3.01 0.77L3.01 0.77Q3.73 0.77 4.24 0.25Q4.74-0.26 4.74-0.97L4.74-0.97Q4.74-1.69 4.24-2.20Q3.73-2.70 3.01-2.70Z" transform="translate(169.9833333333333 95.35) " fill="rgb(255, 255, 255)" stroke="rgb(255, 255, 255)" stroke-width="0.027" data-glyph-w="24.283333333333324" data-glyph-h="23.63865" data-glyph-ascender="18.93395" data-glyph-descender="-4.7047"/></g><g data-width="267.1166666666666" transform="translate(16.45, 0)"><path d="M4.31-4.11L4.31-4.11L6.23-3.08Q6.17-2.94 6.03-2.90Q5.89-2.86 5.63-2.91L5.63-2.91Q4.82-1.94 3.54-0.98Q2.27-0.02 0.72 0.64L0.72 0.64L0.58 0.44Q1.78-0.49 2.77-1.75Q3.77-3.01 4.31-4.11ZM10.36-3.62L10.36-3.62L10.53-3.75Q12.68-3.22 13.71-2.41Q14.74-1.60 14.91-0.84Q15.08-0.08 14.68 0.29Q14.28 0.66 13.57 0.28L13.57 0.28Q13.16-0.79 12.25-1.84Q11.33-2.90 10.36-3.62ZM9.03-5.40L12.55-5.40L13.49-6.60Q13.49-6.60 13.79-6.37Q14.10-6.14 14.50-5.82Q14.90-5.49 15.25-5.18L15.25-5.18Q15.18-4.92 14.80-4.92L14.80-4.92L9.03-4.92L9.03-0.66Q9.03-0.10 8.87 0.34Q8.70 0.77 8.20 1.04Q7.70 1.32 6.71 1.40L6.71 1.40Q6.68 0.64 6.32 0.28L6.32 0.28Q6.14 0.10 5.78-0.05Q5.43-0.20 4.79-0.28L4.79-0.28L4.79-0.49Q4.79-0.49 5.07-0.48Q5.35-0.46 5.73-0.44Q6.12-0.41 6.47-0.39Q6.83-0.38 6.97-0.38L6.97-0.38Q7.40-0.38 7.35-0.71L7.35-0.71L7.35-4.92L1.46-4.92L1.32-5.40L7.35-5.40L7.35-7.70L4.16-7.70L4.03-8.18L9.82-8.18L10.73-9.31Q10.73-9.31 11.01-9.09Q11.30-8.87 11.69-8.56Q12.07-8.26 12.40-7.96L12.40-7.96Q12.32-7.70 11.94-7.70L11.94-7.70L9.03-7.70L9.03-5.40ZM7.22-13.95L7.22-13.95L9.77-13.31Q9.72-13.01 9.01-12.96L9.01-12.96Q10.20-11.55 12.12-10.57Q14.05-9.59 16.07-8.98L16.07-8.98L16.06-8.72Q15.51-8.57 15.17-8.16Q14.82-7.75 14.72-7.25L14.72-7.25Q12.80-8.18 11.19-9.57Q9.59-10.97 8.73-12.78L8.73-12.78Q7.47-10.99 5.23-9.32Q2.99-7.65 0.58-6.65L0.58-6.65L0.46-6.86Q2.63-8.16 4.59-10.18Q6.55-12.21 7.22-13.95Z" transform="translate(0 121.35) " fill="rgb(255, 255, 255)" stroke="rgb(255, 255, 255)" stroke-width="0.027" data-glyph-w="24.283333333333324" data-glyph-h="23.63865" data-glyph-ascender="18.93395" data-glyph-descender="-4.7047"/><path d="M4.28-6.63L4.28-3.82L7.53-3.82L7.53-6.63L4.28-6.63ZM12.27-3.82L12.27-6.63L9.15-6.63L9.15-3.82L12.27-3.82ZM11.47-12.40L5.25-12.40L5.25-9.71L11.47-9.71L11.47-12.40ZM10.96-2.52L10.96-2.52L11.10-2.65Q13.70-1.89 14.54-0.83Q15.38 0.23 15.08 0.90Q14.77 1.56 13.90 1.15L13.90 1.15Q13.59 0.38 12.96-0.41L12.96-0.41Q9.51 0.16 2.48 0.99L2.48 0.99Q2.29 1.28 2.02 1.33L2.02 1.33L1.14-0.51Q3.11-0.51 7.53-0.63L7.53-0.63L7.53-3.34L4.28-3.34L4.28-2.80Q4.28-2.73 4.08-2.62Q3.88-2.50 3.59-2.41Q3.29-2.32 2.98-2.32L2.98-2.32L2.75-2.32L2.75-7.78L4.39-7.09L7.53-7.09L7.53-9.23L5.25-9.23L5.25-8.64Q5.25-8.55 4.92-8.40Q4.59-8.24 4.01-8.24L4.01-8.24L3.75-8.24L3.75-13.54L5.43-12.88L11.42-12.88L12.16-13.72L13.62-12.60Q13.51-12.39 13.03-12.30L13.03-12.30L13.03-8.90Q13.03-8.85 12.67-8.69Q12.30-8.54 11.73-8.54L11.73-8.54L11.47-8.54L11.47-9.23L9.15-9.23L9.15-7.09L12.11-7.09L12.85-7.93L14.48-6.70Q14.31-6.48 13.79-6.35L13.79-6.35L13.79-3.04Q13.77-2.98 13.56-2.89Q13.36-2.80 13.07-2.71Q12.78-2.63 12.52-2.63L12.52-2.63L12.27-2.63L12.27-3.34L9.15-3.34L9.15-0.67Q10.86-0.72 12.67-0.77L12.67-0.77Q11.83-1.79 10.96-2.52Z" transform="translate(24.283333333333324 121.35) " fill="rgb(255, 255, 255)" stroke="rgb(255, 255, 255)" stroke-width="0.027" data-glyph-w="24.283333333333324" data-glyph-h="23.63865" data-glyph-ascender="18.93395" data-glyph-descender="-4.7047"/><path d="M3.03-2.86L3.03-2.86L3.29-2.85Q3.64-1.46 3.27-0.57Q2.91 0.33 2.29 0.63L2.29 0.63Q1.91 0.84 1.52 0.79Q1.14 0.74 0.97 0.39L0.97 0.39Q0.86 0.07 1.03-0.21Q1.20-0.48 1.53-0.66L1.53-0.66Q2.06-0.90 2.51-1.49Q2.96-2.07 3.03-2.86ZM4.59-10.61L4.59-9.26L7.48-9.26L7.48-10.61L4.59-10.61ZM7.48-11.09L7.48-12.50L4.59-12.50L4.59-11.09L7.48-11.09ZM11.81-11.09L11.81-12.50L9.01-12.50L9.01-11.09L11.81-11.09ZM9.01-10.61L9.01-9.26L11.81-9.26L11.81-10.61L9.01-10.61ZM4.95-4.16L4.95-4.16L4.10-5.68Q5.28-5.66 7.48-5.71L7.48-5.71L7.48-7.07L3.41-7.07L3.41-3.45Q3.41-3.39 3.21-3.27Q3.01-3.16 2.72-3.08Q2.43-2.99 2.12-2.99L2.12-2.99L1.91-2.99L1.91-8.22L3.55-7.55L7.48-7.55L7.48-8.78L4.59-8.78L4.59-8.50Q4.59-8.39 4.19-8.21Q3.78-8.03 3.31-8.03L3.31-8.03L3.09-8.03L3.09-13.65L4.70-12.98L11.65-12.98L12.42-13.82L14.05-12.58Q13.87-12.37 13.36-12.24L13.36-12.24L13.36-8.67Q13.34-8.60 13.14-8.50Q12.93-8.41 12.63-8.32Q12.34-8.22 12.07-8.22L12.07-8.22L11.81-8.22L11.81-8.78L9.01-8.78L9.01-7.55L12.88-7.55L13.60-8.37L15.27-7.14Q15.10-6.93 14.57-6.79L14.57-6.79L14.57-4.51Q14.57-4.06 14.43-3.73Q14.30-3.39 13.85-3.19Q13.41-2.99 12.52-2.91L12.52-2.91Q12.49-3.50 12.17-3.77L12.17-3.77Q12.01-3.90 11.72-4.01Q11.43-4.13 10.91-4.21L10.91-4.21L10.91-4.44Q10.91-4.44 11.14-4.43Q11.37-4.41 11.70-4.39Q12.02-4.38 12.32-4.36Q12.62-4.34 12.73-4.34L12.73-4.34Q12.91-4.34 12.98-4.41Q13.04-4.47 13.04-4.64L13.04-4.64L13.04-7.07L9.01-7.07L9.01-5.76L10.56-5.81Q10.18-6.30 9.72-6.63L9.72-6.63L9.89-6.76Q11.05-6.55 11.56-6.12Q12.07-5.69 12.08-5.27Q12.09-4.85 11.79-4.66Q11.48-4.46 11.04-4.72L11.04-4.72Q10.99-5.08 10.77-5.43L10.77-5.43Q8.90-5.07 5.38-4.49L5.38-4.49Q5.20-4.21 4.95-4.16ZM7.50-3.87L7.50-3.87L7.67-3.98Q9.01-3.55 9.55-2.96Q10.08-2.37 10.04-1.84Q10.00-1.32 9.62-1.12Q9.23-0.92 8.73-1.30L8.73-1.30Q8.69-1.99 8.32-2.68Q7.96-3.37 7.50-3.87ZM11.94-2.42L12.12-2.42L12.17-0.58Q12.55-0.46 12.68-0.31Q12.81-0.16 12.81 0.05L12.81 0.05Q12.81 0.56 12.05 0.72Q11.28 0.89 8.83 0.89L8.83 0.89L6.58 0.89Q5.28 0.89 4.89 0.63Q4.49 0.38 4.49-0.43L4.49-0.43L4.49-3.59L6.56-3.41Q6.53-3.08 6.05-2.99L6.05-2.99L6.05-0.67Q6.05-0.56 6.10-0.49Q6.15-0.43 6.32-0.40Q6.48-0.38 6.83-0.38L6.83-0.38L8.98-0.38Q10.25-0.38 10.82-0.41L10.82-0.41Q11.01-0.43 11.10-0.47Q11.19-0.51 11.27-0.63L11.27-0.63Q11.53-1.09 11.94-2.42L11.94-2.42ZM12.50-2.66L12.50-2.66L12.67-2.78Q14.21-2.27 14.86-1.57Q15.51-0.87 15.52-0.28Q15.53 0.31 15.13 0.55Q14.74 0.79 14.21 0.39L14.21 0.39Q14.10-0.41 13.60-1.24Q13.11-2.07 12.50-2.66Z" transform="translate(48.56666666666665 121.35) " fill="rgb(255, 255, 255)" stroke="rgb(255, 255, 255)" stroke-width="0.027" data-glyph-w="24.283333333333324" data-glyph-h="23.63865" data-glyph-ascender="18.93395" data-glyph-descender="-4.7047"/><path d="M6.84-13.44L6.84-13.44L7.02-13.55Q9.10-12.57 9.57-11.42Q10.03-10.28 9.54-9.67Q9.05-9.06 8.24-9.67L8.24-9.67Q8.24-10.64 7.82-11.66Q7.40-12.68 6.84-13.44ZM2.83-8.46L2.83-8.46L3.08-8.47Q3.73-6.60 3.54-5.32Q3.36-4.05 2.78-3.42L2.78-3.42Q2.40-2.98 1.91-2.94Q1.41-2.90 1.14-3.27L1.14-3.27Q0.76-4.01 1.46-4.57L1.46-4.57Q2.01-5.07 2.43-6.12Q2.85-7.17 2.83-8.46ZM12.57-3.80L12.77-3.80L12.81-1.12Q13.21-0.99 13.35-0.82Q13.49-0.66 13.49-0.43L13.49-0.43Q13.49-0.05 13.15 0.18Q12.81 0.41 11.92 0.52Q11.02 0.63 9.31 0.63L9.31 0.63L7.12 0.63Q5.77 0.63 5.27 0.29Q4.77-0.05 4.77-1.05L4.77-1.05L4.77-1.15Q2.99 0 0.82 0.86L0.82 0.86L0.66 0.64Q2.94-0.56 4.77-2.14L4.77-2.14L4.77-10.84L6.91-10.61Q6.91-10.28 6.35-10.17L6.35-10.17L6.35-3.67Q8.31-5.77 9.64-8.13Q10.97-10.48 11.73-12.83L11.73-12.83L13.98-12.01Q13.92-11.86 13.76-11.79Q13.60-11.73 13.26-11.76L13.26-11.76Q12.26-9.23 10.57-6.78Q8.88-4.33 6.35-2.27L6.35-2.27L6.35-1.46Q6.35-1.15 6.53-1.03Q6.71-0.90 7.32-0.90L7.32-0.90L9.43-0.90Q10.76-0.90 11.28-0.94L11.28-0.94Q11.48-0.95 11.60-1.02Q11.71-1.09 11.81-1.22L11.81-1.22Q12.09-1.83 12.57-3.80L12.57-3.80ZM12.39-8.09L12.39-8.09L12.57-8.21Q14.90-6.96 15.46-5.61Q16.02-4.26 15.50-3.57Q14.99-2.88 14.11-3.59L14.11-3.59Q14.06-4.74 13.56-5.94Q13.06-7.14 12.39-8.09Z" transform="translate(72.84999999999997 121.35) " fill="rgb(255, 255, 255)" stroke="rgb(255, 255, 255)" stroke-width="0.027" data-glyph-w="24.283333333333324" data-glyph-h="23.63865" data-glyph-ascender="18.93395" data-glyph-descender="-4.7047"/><path d="M5.23-8.32L5.23-11.96L2.71-11.96L2.71-8.32L5.23-8.32ZM2.71-7.86L2.71-4.11L5.23-4.11L5.23-7.86L2.71-7.86ZM5.23-2.27L5.23-3.64L2.71-3.64L2.71-2.02Q2.71-1.94 2.39-1.73Q2.06-1.51 1.48-1.51L1.48-1.51L1.23-1.51L1.23-13.09L2.91-12.44L5.07-12.44L5.82-13.28L7.39-12.04Q7.22-11.83 6.70-11.70L6.70-11.70L6.70-2.80Q6.68-2.71 6.48-2.59Q6.28-2.47 6.00-2.37Q5.72-2.27 5.46-2.27L5.46-2.27L5.23-2.27ZM9.79-5.17L9.79-5.17L13.51-5.17L13.51-8.50L9.92-8.50L9.92-7.48Q9.92-6.33 9.79-5.17ZM13.51-8.98L13.51-12.26L9.92-12.26L9.92-8.98L13.51-8.98ZM13.34-12.73L14.06-13.59L15.71-12.34Q15.51-12.11 15.02-11.99L15.02-11.99L15.02-0.59Q15.02-0.03 14.87 0.38Q14.72 0.79 14.24 1.04Q13.75 1.30 12.75 1.40L12.75 1.40Q12.68 0.66 12.29 0.31L12.29 0.31Q11.89-0.08 10.59-0.26L10.59-0.26L10.59-0.51Q10.59-0.51 10.91-0.49Q11.24-0.48 11.68-0.44Q12.12-0.41 12.53-0.39Q12.93-0.38 13.08-0.38L13.08-0.38Q13.32-0.38 13.41-0.46Q13.51-0.54 13.51-0.76L13.51-0.76L13.51-4.69L9.72-4.69Q9.46-2.91 8.41-1.34Q7.37 0.23 5.05 1.40L5.05 1.40L4.85 1.23Q6.37 0.07 7.14-1.30Q7.91-2.66 8.17-4.21Q8.42-5.76 8.42-7.47L8.42-7.47L8.42-13.39L10.17-12.73L13.34-12.73Z" transform="translate(97.1333333333333 121.35) " fill="rgb(255, 255, 255)" stroke="rgb(255, 255, 255)" stroke-width="0.027" data-glyph-w="24.283333333333324" data-glyph-h="23.63865" data-glyph-ascender="18.93395" data-glyph-descender="-4.7047"/><path d="M1.28 3.49L1.28 3.49L1.02 3.01Q1.97 2.47 2.39 1.82Q2.80 1.17 2.86 0.59L2.86 0.59Q2.50 0.48 2.11 0.30Q1.73 0.12 1.45-0.19Q1.17-0.49 1.17-0.99L1.17-0.99Q1.17-1.46 1.51-1.83Q1.84-2.19 2.42-2.19L2.42-2.19Q3.04-2.19 3.43-1.73Q3.82-1.27 3.82-0.49L3.82-0.49Q3.82 0.20 3.58 0.95Q3.34 1.71 2.78 2.38Q2.22 3.04 1.28 3.49Z" transform="translate(121.41666666666663 121.35) " fill="rgb(255, 255, 255)" stroke="rgb(255, 255, 255)" stroke-width="0.027" data-glyph-w="24.283333333333324" data-glyph-h="23.63865" data-glyph-ascender="18.93395" data-glyph-descender="-4.7047"/><path d="M4.28-6.63L4.28-3.82L7.53-3.82L7.53-6.63L4.28-6.63ZM12.27-3.82L12.27-6.63L9.15-6.63L9.15-3.82L12.27-3.82ZM11.47-12.40L5.25-12.40L5.25-9.71L11.47-9.71L11.47-12.40ZM10.96-2.52L10.96-2.52L11.10-2.65Q13.70-1.89 14.54-0.83Q15.38 0.23 15.08 0.90Q14.77 1.56 13.90 1.15L13.90 1.15Q13.59 0.38 12.96-0.41L12.96-0.41Q9.51 0.16 2.48 0.99L2.48 0.99Q2.29 1.28 2.02 1.33L2.02 1.33L1.14-0.51Q3.11-0.51 7.53-0.63L7.53-0.63L7.53-3.34L4.28-3.34L4.28-2.80Q4.28-2.73 4.08-2.62Q3.88-2.50 3.59-2.41Q3.29-2.32 2.98-2.32L2.98-2.32L2.75-2.32L2.75-7.78L4.39-7.09L7.53-7.09L7.53-9.23L5.25-9.23L5.25-8.64Q5.25-8.55 4.92-8.40Q4.59-8.24 4.01-8.24L4.01-8.24L3.75-8.24L3.75-13.54L5.43-12.88L11.42-12.88L12.16-13.72L13.62-12.60Q13.51-12.39 13.03-12.30L13.03-12.30L13.03-8.90Q13.03-8.85 12.67-8.69Q12.30-8.54 11.73-8.54L11.73-8.54L11.47-8.54L11.47-9.23L9.15-9.23L9.15-7.09L12.11-7.09L12.85-7.93L14.48-6.70Q14.31-6.48 13.79-6.35L13.79-6.35L13.79-3.04Q13.77-2.98 13.56-2.89Q13.36-2.80 13.07-2.71Q12.78-2.63 12.52-2.63L12.52-2.63L12.27-2.63L12.27-3.34L9.15-3.34L9.15-0.67Q10.86-0.72 12.67-0.77L12.67-0.77Q11.83-1.79 10.96-2.52Z" transform="translate(145.69999999999996 121.35) " fill="rgb(255, 255, 255)" stroke="rgb(255, 255, 255)" stroke-width="0.027" data-glyph-w="24.283333333333324" data-glyph-h="23.63865" data-glyph-ascender="18.93395" data-glyph-descender="-4.7047"/><path d="M0.84-5.31L0.84-5.31L0.71-5.56Q4.26-7.06 6.46-9.34L6.46-9.34L1.09-9.34L0.94-9.80L8.03-9.80L7.98-9.85Q7.35-10.87 5.35-11.70L5.35-11.70L5.41-11.94Q8.26-11.71 9.03-11.05L9.03-11.05Q10.03-11.75 10.89-12.49L10.89-12.49L2.68-12.49L2.53-12.95L11.19-12.95L12.19-13.88L13.80-12.35Q13.64-12.17 13.11-12.17L13.11-12.17Q12.37-11.81 11.35-11.44Q10.33-11.07 9.36-10.77L9.36-10.77Q9.57-10.50 9.55-10.24Q9.52-9.99 9.33-9.80L9.33-9.80L13.00-9.80L13.98-10.73L15.58-9.20Q15.40-9.01 14.90-9.01L14.90-9.01Q14.13-8.49 13.00-7.96Q11.88-7.44 10.87-7.09L10.87-7.09L10.73-7.24Q11.25-7.67 11.83-8.23Q12.40-8.80 12.85-9.34L12.85-9.34L9.75-9.34L9.75-6.97Q9.75-6.48 9.61-6.16Q9.46-5.84 8.99-5.66Q8.52-5.48 7.58-5.41L7.58-5.41Q7.57-5.95 7.24-6.20L7.24-6.20Q6.96-6.46 5.84-6.61L5.84-6.61L5.84-6.84Q5.84-6.84 6.09-6.83Q6.35-6.81 6.70-6.79Q7.04-6.76 7.36-6.74Q7.68-6.73 7.81-6.73L7.81-6.73Q8.04-6.73 8.11-6.80Q8.18-6.88 8.18-7.01L8.18-7.01L8.18-8.87Q5.33-6.45 0.84-5.31ZM15.38-3.54L15.38-3.54L9.52-3.54Q10.71-2.47 12.48-1.74Q14.25-1.00 16.06-0.69L16.06-0.69L16.02-0.49Q15.05-0.26 14.74 0.95L14.74 0.95Q11.01-0.33 9.05-3.54L9.05-3.54L8.97-3.54L8.97 0.97Q8.97 1.04 8.77 1.14Q8.57 1.23 8.27 1.31Q7.98 1.38 7.67 1.38L7.67 1.38L7.37 1.38L7.37-2.35Q4.79-0.08 0.61 1.07L0.61 1.07L0.48 0.82Q4.24-0.87 6.25-3.54L6.25-3.54L0.72-3.54L0.59-4.01L7.37-4.01L7.37-5.38L9.57-5.17Q9.56-4.98 9.43-4.87Q9.29-4.75 8.97-4.70L8.97-4.70L8.97-4.01L13.09-4.01L14.08-5.23Q14.08-5.23 14.38-5.00Q14.67-4.77 15.08-4.44Q15.48-4.11 15.82-3.80L15.82-3.80Q15.73-3.54 15.38-3.54Z" transform="translate(169.9833333333333 121.35) " fill="rgb(255, 255, 255)" stroke="rgb(255, 255, 255)" stroke-width="0.027" data-glyph-w="24.283333333333324" data-glyph-h="23.63865" data-glyph-ascender="18.93395" data-glyph-descender="-4.7047"/><path d="M6.84-13.44L6.84-13.44L7.02-13.55Q9.10-12.57 9.57-11.42Q10.03-10.28 9.54-9.67Q9.05-9.06 8.24-9.67L8.24-9.67Q8.24-10.64 7.82-11.66Q7.40-12.68 6.84-13.44ZM2.83-8.46L2.83-8.46L3.08-8.47Q3.73-6.60 3.54-5.32Q3.36-4.05 2.78-3.42L2.78-3.42Q2.40-2.98 1.91-2.94Q1.41-2.90 1.14-3.27L1.14-3.27Q0.76-4.01 1.46-4.57L1.46-4.57Q2.01-5.07 2.43-6.12Q2.85-7.17 2.83-8.46ZM12.57-3.80L12.77-3.80L12.81-1.12Q13.21-0.99 13.35-0.82Q13.49-0.66 13.49-0.43L13.49-0.43Q13.49-0.05 13.15 0.18Q12.81 0.41 11.92 0.52Q11.02 0.63 9.31 0.63L9.31 0.63L7.12 0.63Q5.77 0.63 5.27 0.29Q4.77-0.05 4.77-1.05L4.77-1.05L4.77-1.15Q2.99 0 0.82 0.86L0.82 0.86L0.66 0.64Q2.94-0.56 4.77-2.14L4.77-2.14L4.77-10.84L6.91-10.61Q6.91-10.28 6.35-10.17L6.35-10.17L6.35-3.67Q8.31-5.77 9.64-8.13Q10.97-10.48 11.73-12.83L11.73-12.83L13.98-12.01Q13.92-11.86 13.76-11.79Q13.60-11.73 13.26-11.76L13.26-11.76Q12.26-9.23 10.57-6.78Q8.88-4.33 6.35-2.27L6.35-2.27L6.35-1.46Q6.35-1.15 6.53-1.03Q6.71-0.90 7.32-0.90L7.32-0.90L9.43-0.90Q10.76-0.90 11.28-0.94L11.28-0.94Q11.48-0.95 11.60-1.02Q11.71-1.09 11.81-1.22L11.81-1.22Q12.09-1.83 12.57-3.80L12.57-3.80ZM12.39-8.09L12.39-8.09L12.57-8.21Q14.90-6.96 15.46-5.61Q16.02-4.26 15.50-3.57Q14.99-2.88 14.11-3.59L14.11-3.59Q14.06-4.74 13.56-5.94Q13.06-7.14 12.39-8.09Z" transform="translate(194.26666666666662 121.35) " fill="rgb(255, 255, 255)" stroke="rgb(255, 255, 255)" stroke-width="0.027" data-glyph-w="24.283333333333324" data-glyph-h="23.63865" data-glyph-ascender="18.93395" data-glyph-descender="-4.7047"/><path d="M4.29-5.54L5.07-6.32L6.51-5.13Q6.37-4.93 5.86-4.85L5.86-4.85Q5.69-0.08 4.70 0.81L4.70 0.81Q4.03 1.37 2.81 1.37L2.81 1.37Q2.81 1.05 2.75 0.81Q2.68 0.56 2.48 0.39L2.48 0.39Q2.27 0.23 1.84 0.09Q1.41-0.05 0.90-0.13L0.90-0.13L0.90-0.38Q1.20-0.36 1.55-0.33L1.55-0.33Q2.04-0.30 2.50-0.26Q2.96-0.23 3.16-0.23L3.16-0.23Q3.37-0.23 3.50-0.26Q3.62-0.30 3.72-0.39L3.72-0.39Q4.29-1.00 4.46-5.07L4.46-5.07L2.29-5.07L1.76-4.44L0.36-5.35Q0.61-5.54 0.94-5.68L0.94-5.68Q1.05-6.58 1.14-7.74Q1.23-8.90 1.27-9.72L1.27-9.72L2.90-9.06L4.38-9.06L4.38-12.34L0.86-12.34L0.71-12.81L4.19-12.81L4.92-13.62L6.48-12.42Q6.30-12.17 5.76-12.06L5.76-12.06L5.76-8.24Q5.74-8.19 5.55-8.10Q5.36-8.01 5.09-7.94Q4.82-7.86 4.59-7.86L4.59-7.86L4.38-7.86L4.38-8.59L2.52-8.59Q2.47-7.88 2.39-7.06Q2.30-6.23 2.22-5.54L2.22-5.54L4.29-5.54ZM8.31-7.02L8.31-4.13L10.12-4.13L10.12-7.02L8.31-7.02ZM13.39-4.13L13.39-7.02L11.55-7.02L11.55-4.13L13.39-4.13ZM13.01-12.49L8.75-12.49L8.75-9.95L13.01-9.95L13.01-12.49ZM12.72-2.63L12.72-2.63L12.90-2.75Q15.04-1.89 15.56-0.80Q16.09 0.30 15.64 0.91Q15.18 1.53 14.39 0.95L14.39 0.95Q14.36 0.15 13.98-0.71L13.98-0.71Q11.60-0.08 7.21 0.87L7.21 0.87Q7.04 1.18 6.76 1.23L6.76 1.23L5.91-0.53Q7.30-0.58 10.12-0.81L10.12-0.81L10.12-3.65L8.31-3.65L8.31-3.04Q8.31-2.99 8.13-2.89Q7.96-2.78 7.70-2.70Q7.44-2.62 7.16-2.62L7.16-2.62L6.96-2.62L6.96-8.11L8.41-7.50L10.12-7.50L10.12-9.48L8.75-9.48L8.75-9.05Q8.75-9.00 8.57-8.89Q8.39-8.78 8.11-8.69Q7.83-8.60 7.53-8.60L7.53-8.60L7.32-8.60L7.32-13.60L8.83-12.96L12.86-12.96L13.57-13.72L15.07-12.58Q15.00-12.50 14.85-12.41Q14.69-12.32 14.48-12.29L14.48-12.29L14.48-9.18Q14.46-9.13 14.26-9.04Q14.06-8.95 13.79-8.87Q13.51-8.80 13.26-8.80L13.26-8.80L13.01-8.80L13.01-9.48L11.55-9.48L11.55-7.50L13.24-7.50L13.93-8.24L15.40-7.12Q15.33-7.04 15.18-6.95Q15.02-6.86 14.80-6.83L14.80-6.83L14.80-3.34Q14.79-3.27 14.59-3.19Q14.39-3.11 14.12-3.04Q13.85-2.96 13.62-2.96L13.62-2.96L13.39-2.96L13.39-3.65L11.55-3.65L11.55-0.92L13.79-1.10Q13.32-2.02 12.72-2.63Z" transform="translate(218.54999999999995 121.35) " fill="rgb(255, 255, 255)" stroke="rgb(255, 255, 255)" stroke-width="0.027" data-glyph-w="24.283333333333324" data-glyph-h="23.63865" data-glyph-ascender="18.93395" data-glyph-descender="-4.7047"/><path d="M3.01 1.37L3.01 1.37Q2.06 1.37 1.37 0.67Q0.67-0.02 0.67-0.97L0.67-0.97Q0.67-1.94 1.37-2.62Q2.06-3.29 3.01-3.29L3.01-3.29Q3.98-3.29 4.66-2.62Q5.33-1.94 5.33-0.97L5.33-0.97Q5.33-0.02 4.66 0.67Q3.98 1.37 3.01 1.37ZM3.01-2.70L3.01-2.70Q2.29-2.70 1.78-2.20Q1.27-1.69 1.27-0.97L1.27-0.97Q1.27-0.26 1.78 0.25Q2.29 0.77 3.01 0.77L3.01 0.77Q3.73 0.77 4.24 0.25Q4.74-0.26 4.74-0.97L4.74-0.97Q4.74-1.69 4.24-2.20Q3.73-2.70 3.01-2.70Z" transform="translate(242.8333333333333 121.35) " fill="rgb(255, 255, 255)" stroke="rgb(255, 255, 255)" stroke-width="0.027" data-glyph-w="24.283333333333324" data-glyph-h="23.63865" data-glyph-ascender="18.93395" data-glyph-descender="-4.7047"/></g></svg></g></g><g id="shape_aB18cM6iOJ" transform="translate(95.54430135325,132.446428264695) rotate(0,206.254287991105,64.790771484375) scale(1,1)" filter="" style="opacity: 1;"><g><svg xmlns="http://www.w3.org/2000/svg" xmlns:xlink="http://www.w3.org/1999/xlink" version="1.1" width="448.54857598220997" height="129.58154296875" viewBox="0 0 448.54857598220997 129.58154296875"><g data-width="308.4591373097769" transform="translate(18.02, 0)"><path d="M0.88 0.79L0.43-0.31Q1.41-0.48 1.98-0.78Q2.54-1.08 2.84-1.54Q3.13-2.01 3.22-2.66Q3.30-3.32 3.30-4.21L3.30-4.21L3.30-13.89L4.99-13.89L4.99-4.52Q4.99-3.44 4.85-2.52Q4.72-1.59 4.29-0.90Q3.85-0.21 3.04 0.23Q2.23 0.67 0.88 0.79L0.88 0.79Z" transform="translate(0 69.290771484375) " fill="rgb(255, 255, 255)" stroke="rgb(255, 255, 255)" stroke-width="0.03" data-glyph-w="27.497868121602693" data-glyph-h="20.316494140625" data-glyph-ascender="15.230771484375" data-glyph-descender="-5.08572265625"/><path d="M5.37-9.27L5.37-9.27Q4.97-9.27 4.54-9.19Q4.10-9.12 3.67-8.99Q3.25-8.85 2.85-8.65Q2.45-8.46 2.12-8.20L2.12-8.20L1.52-9.36Q2.02-9.63 2.45-9.84Q2.89-10.05 3.33-10.19Q3.77-10.33 4.26-10.40Q4.75-10.47 5.37-10.47L5.37-10.47Q6.70-10.47 7.49-10.18Q8.29-9.89 8.71-9.28Q9.12-8.68 9.25-7.73Q9.38-6.79 9.38-5.49L9.38-5.49L9.38 0L8.15 0L7.90-1.57Q7.25-0.65 6.35-0.24Q5.46 0.18 4.34 0.18L4.34 0.18Q3.55 0.18 2.91-0.03Q2.27-0.23 1.82-0.63Q1.37-1.03 1.13-1.63Q0.89-2.23 0.89-3.02L0.89-3.02Q0.89-3.78 1.18-4.39Q1.47-5.00 1.96-5.42Q2.45-5.84 3.11-6.07Q3.76-6.29 4.48-6.29L4.48-6.29Q5.20-6.29 5.79-6.22Q6.39-6.15 6.81-6.07Q7.24-5.98 7.48-5.91L7.48-5.91L7.71-5.85Q7.71-6.76 7.67-7.41Q7.64-8.06 7.42-8.47Q7.20-8.88 6.72-9.07Q6.25-9.27 5.37-9.27ZM4.75-1.03L4.75-1.03Q5.55-1.03 6.27-1.37Q6.99-1.72 7.71-2.38L7.71-2.38L7.71-5.01Q7.34-5.06 6.99-5.09L6.99-5.09Q6.68-5.13 6.33-5.16Q5.97-5.19 5.67-5.19L5.67-5.19Q5.03-5.19 4.47-5.13Q3.91-5.06 3.48-4.84Q3.06-4.62 2.82-4.21Q2.57-3.79 2.57-3.11L2.57-3.11Q2.57-2.49 2.73-2.09Q2.89-1.69 3.17-1.45Q3.46-1.21 3.86-1.12Q4.26-1.03 4.75-1.03Z" transform="translate(27.497868121602693 69.290771484375) " fill="rgb(255, 255, 255)" stroke="rgb(255, 255, 255)" stroke-width="0.03" data-glyph-w="31.712506793477694" data-glyph-h="20.316494140625" data-glyph-ascender="15.230771484375" data-glyph-descender="-5.08572265625"/><path d="M4.36-0.20L0.40-10.29L2.00-10.29L5.12-2.19L7.77-10.29L9.49-10.29L5.64 0.33Q5.39 1.00 5.10 1.53Q4.80 2.05 4.49 2.44Q4.17 2.82 3.85 3.10Q3.54 3.37 3.24 3.55L3.24 3.55Q2.54 3.97 1.82 4.04L1.82 4.04L1.37 2.94Q1.89 2.82 2.34 2.61Q2.79 2.40 3.16 2.04Q3.53 1.68 3.83 1.14Q4.14 0.59 4.36-0.20L4.36-0.20Z" transform="translate(59.210374915080386 69.290771484375) " fill="rgb(255, 255, 255)" stroke="rgb(255, 255, 255)" stroke-width="0.03" data-glyph-w="31.034997027852693" data-glyph-h="20.316494140625" data-glyph-ascender="15.230771484375" data-glyph-descender="-5.08572265625"/><path d="M1.80-13.89L3.81-13.89L3.81-13.27L3.28-9.31L2.33-9.31L1.80-13.27L1.80-13.89Z" transform="translate(90.24537194293308 69.290771484375) " fill="rgb(255, 255, 255)" stroke="rgb(255, 255, 255)" stroke-width="0.03" data-glyph-w="26.732370074727694" data-glyph-h="20.316494140625" data-glyph-ascender="15.230771484375" data-glyph-descender="-5.08572265625"/><path d="M4.94-4.44L2.97-5.14Q2.53-5.30 2.13-5.53Q1.73-5.76 1.44-6.08Q1.15-6.41 0.99-6.82Q0.82-7.23 0.82-7.75L0.82-7.75Q0.82-8.44 1.10-8.95Q1.39-9.47 1.87-9.80Q2.34-10.14 2.95-10.30Q3.55-10.47 4.21-10.47L4.21-10.47Q4.79-10.47 5.34-10.36Q5.89-10.24 6.35-10.07Q6.81-9.91 7.15-9.72Q7.50-9.53 7.67-9.39L7.67-9.39L7.13-8.28Q6.59-8.69 5.87-8.98Q5.16-9.27 4.32-9.27L4.32-9.27Q3.80-9.27 3.41-9.15Q3.02-9.03 2.75-8.83Q2.49-8.63 2.36-8.38Q2.23-8.12 2.23-7.84L2.23-7.84Q2.23-7.35 2.61-7.03Q2.99-6.72 3.67-6.48L3.67-6.48L5.15-5.97Q5.82-5.73 6.37-5.45Q6.92-5.16 7.32-4.80Q7.71-4.43 7.92-3.95Q8.14-3.48 8.14-2.86L8.14-2.86Q8.14-2.31 7.95-1.76Q7.76-1.21 7.33-0.78Q6.91-0.35 6.22-0.08Q5.53 0.18 4.53 0.18L4.53 0.18Q3.85 0.18 3.26 0.06Q2.67-0.06 2.22-0.23Q1.76-0.40 1.43-0.59Q1.09-0.78 0.91-0.92L0.91-0.92L1.46-2.03Q1.65-1.87 1.98-1.70Q2.31-1.52 2.71-1.37Q3.11-1.22 3.55-1.13Q3.98-1.03 4.37-1.03L4.37-1.03Q4.66-1.03 5.05-1.10Q5.45-1.17 5.79-1.36Q6.14-1.54 6.38-1.87Q6.63-2.19 6.63-2.69L6.63-2.69Q6.63-3.04 6.50-3.31Q6.38-3.58 6.15-3.79Q5.93-3.99 5.62-4.15Q5.31-4.31 4.94-4.44L4.94-4.44Z" transform="translate(116.97774201766077 69.290771484375) " fill="rgb(255, 255, 255)" stroke="rgb(255, 255, 255)" stroke-width="0.03" data-glyph-w="29.882350543477692" data-glyph-h="20.316494140625" data-glyph-ascender="15.230771484375" data-glyph-descender="-5.08572265625"/><path d="" transform="translate(146.86009256113846 69.290771484375) " fill="rgb(255, 255, 255)" stroke="rgb(255, 255, 255)" stroke-width="0.03" data-glyph-w="28.325873043477692" data-glyph-h="18.02" data-glyph-ascender="15.857600000000001" data-glyph-descender="-2.1624000000000003"/><path d="M1.35-13.89L4.52-13.89Q5.07-13.89 5.72-13.87Q6.38-13.85 7.04-13.75Q7.70-13.66 8.32-13.45Q8.94-13.25 9.42-12.90Q9.90-12.56 10.19-12.03Q10.48-11.50 10.48-10.74L10.48-10.74Q10.48-9.81 10.28-9.24Q10.07-8.67 9.70-8.33Q9.32-8.00 8.79-7.84Q8.26-7.68 7.62-7.58L7.62-7.58Q7.99-7.54 8.40-7.47Q8.81-7.39 9.20-7.23Q9.60-7.07 9.96-6.80Q10.33-6.53 10.60-6.11Q10.88-5.69 11.04-5.10Q11.20-4.51 11.20-3.70L11.20-3.70Q11.20-2.87 11.00-2.27Q10.80-1.67 10.43-1.26Q10.06-0.85 9.52-0.60Q8.97-0.35 8.29-0.22Q7.60-0.09 6.78-0.04Q5.97 0 5.04 0L5.04 0L1.35 0L1.35-13.89ZM3.05-1.26L5.04-1.26Q6.34-1.26 7.22-1.42Q8.09-1.57 8.62-1.91Q9.15-2.24 9.38-2.77Q9.60-3.29 9.60-4.02L9.60-4.02Q9.60-4.84 9.35-5.40Q9.10-5.96 8.57-6.29Q8.05-6.63 7.25-6.77Q6.46-6.92 5.37-6.92L5.37-6.92L3.05-6.92L3.05-1.26ZM3.05-12.64L3.05-8.05L5.33-8.05Q6.42-8.05 7.14-8.19Q7.86-8.33 8.28-8.64Q8.69-8.96 8.86-9.45Q9.03-9.95 9.03-10.66L9.03-10.66Q9.03-11.19 8.79-11.57Q8.54-11.94 8.01-12.18Q7.48-12.42 6.63-12.53Q5.77-12.64 4.56-12.64L4.56-12.64L3.05-12.64Z" transform="translate(175.18596560461614 69.290771484375) " fill="rgb(255, 255, 255)" stroke="rgb(255, 255, 255)" stroke-width="0.03" data-glyph-w="33.164313434102695" data-glyph-h="20.316494140625" data-glyph-ascender="15.230771484375" data-glyph-descender="-5.08572265625"/><path d="M9.62 0L1.35 0L1.35-13.89L3.05-13.89L3.05-1.26L9.62-1.26L9.62 0Z" transform="translate(208.35027903871884 69.290771484375) " fill="rgb(255, 255, 255)" stroke="rgb(255, 255, 255)" stroke-width="0.03" data-glyph-w="31.536530230977693" data-glyph-h="20.316494140625" data-glyph-ascender="15.230771484375" data-glyph-descender="-5.08572265625"/><path d="M12.45-7.09L12.45-7.09Q12.45-6.12 12.34-5.20Q12.24-4.27 11.99-3.44Q11.74-2.60 11.31-1.90Q10.88-1.21 10.24-0.70Q9.60-0.19 8.72 0.09Q7.83 0.38 6.67 0.38L6.67 0.38Q5.50 0.38 4.61 0.08Q3.72-0.21 3.08-0.74Q2.45-1.27 2.02-1.99Q1.60-2.71 1.35-3.56Q1.10-4.42 1.00-5.36Q0.90-6.31 0.90-7.29L0.90-7.29Q0.90-8.89 1.27-10.16Q1.65-11.43 2.38-12.32Q3.11-13.21 4.18-13.68Q5.26-14.15 6.67-14.15L6.67-14.15Q8.09-14.15 9.17-13.67Q10.25-13.20 10.98-12.29Q11.71-11.39 12.08-10.07Q12.45-8.76 12.45-7.09ZM2.67-6.82L2.67-6.82Q2.67-3.86 3.69-2.42Q4.72-0.99 6.67-0.99L6.67-0.99Q7.58-0.99 8.32-1.30Q9.06-1.61 9.59-2.31Q10.11-3.00 10.39-4.11Q10.67-5.23 10.67-6.82L10.67-6.82Q10.67-8.41 10.41-9.55Q10.15-10.69 9.64-11.42Q9.13-12.15 8.40-12.49Q7.66-12.84 6.73-12.84L6.73-12.84Q5.76-12.84 5.01-12.51Q4.25-12.18 3.73-11.46Q3.21-10.73 2.94-9.59Q2.67-8.45 2.67-6.82Z" transform="translate(239.88680926969653 69.290771484375) " fill="rgb(255, 255, 255)" stroke="rgb(255, 255, 255)" stroke-width="0.03" data-glyph-w="34.49293648097769" data-glyph-h="20.316494140625" data-glyph-ascender="15.230771484375" data-glyph-descender="-5.08572265625"/><path d="M10.26-3.51L10.26-6.02L6.64-6.02L6.64-7.14L11.81-7.14L11.81 0L11.03 0L10.57-1.87Q10.46-1.43 10.17-1.02Q9.88-0.62 9.39-0.31Q8.90 0 8.19 0.18Q7.48 0.36 6.55 0.36L6.55 0.36Q5.15 0.36 4.09-0.18Q3.04-0.73 2.33-1.70Q1.62-2.67 1.26-4.00Q0.91-5.34 0.91-6.92L0.91-6.92Q0.91-8.76 1.31-10.13Q1.72-11.49 2.48-12.39Q3.25-13.29 4.35-13.73Q5.45-14.17 6.84-14.17L6.84-14.17Q7.35-14.17 7.87-14.10Q8.40-14.03 8.92-13.89Q9.43-13.75 9.92-13.53Q10.41-13.30 10.85-12.99L10.85-12.99L10.27-11.80Q10.02-12.01 9.66-12.20Q9.30-12.38 8.84-12.52Q8.39-12.66 7.85-12.75Q7.32-12.83 6.73-12.83L6.73-12.83Q5.74-12.83 4.98-12.48Q4.22-12.13 3.71-11.41Q3.19-10.69 2.93-9.59Q2.67-8.48 2.67-6.97L2.67-6.97Q2.67-5.53 2.89-4.41Q3.10-3.30 3.57-2.53Q4.05-1.77 4.82-1.37Q5.60-0.98 6.72-0.98L6.72-0.98Q7.48-0.98 8.13-1.11Q8.77-1.24 9.25-1.54Q9.72-1.85 9.99-2.33Q10.26-2.81 10.26-3.51L10.26-3.51Z" transform="translate(274.3797457506742 69.290771484375) " fill="rgb(255, 255, 255)" stroke="rgb(255, 255, 255)" stroke-width="0.03" data-glyph-w="34.079391559102696" data-glyph-h="20.316494140625" data-glyph-ascender="15.230771484375" data-glyph-descender="-5.08572265625"/></g></svg></g></g><g id="shape_BrlP5md58v" transform="translate(424.13962308452005,-143.30537241420097) rotate(0,210.113748801275,225.48) scale(1,1)" filter="" style="opacity: 1;"><g><svg xmlns="http://www.w3.org/2000/svg" xmlns:xlink="http://www.w3.org/1999/xlink" version="1.1" width="545.54749760255" height="450.96000000000004" viewBox="0 0 545.54749760255 450.96000000000004"><g data-width="24.938679999999998" transform="translate(197.644408801275, 0)"><path d="" transform="translate(0 248.98) " fill="rgb(217, 217, 217)" stroke="rgb(217, 217, 217)" stroke-width="0.104" data-glyph-w="24.938679999999998" data-glyph-h="62.66" data-glyph-ascender="55.14079999999999" data-glyph-descender="-7.5192"/></g></svg></g></g><g id="shape_uCjSNYyDDP" transform="translate(427.37287733546,-7.012944215769977) rotate(0,210.113748801275,225.48) scale(1,1)" filter="" style="opacity: 1;"><g><svg xmlns="http://www.w3.org/2000/svg" xmlns:xlink="http://www.w3.org/1999/xlink" version="1.1" width="545.54749760255" height="450.96000000000004" viewBox="0 0 545.54749760255 450.96000000000004"><g data-width="24.938679999999998" transform="translate(197.644408801275, 0)"><path d="" transform="translate(0 248.98) " fill="rgb(217, 217, 217)" stroke="rgb(217, 217, 217)" stroke-width="0.104" data-glyph-w="24.938679999999998" data-glyph-h="62.66" data-glyph-ascender="55.14079999999999" data-glyph-descender="-7.5192"/></g></svg></g></g><g id="shape_VR1KlcONjK" transform="translate(661.71211202766,139.06558035851901) rotate(0,152,97.786) scale(1,1)" filter="" style="opacity: 1;"><g><svg xmlns="http://www.w3.org/2000/svg" xmlns:xlink="http://www.w3.org/1999/xlink" version="1.1" width="358" height="195.572" viewBox="0 0 358 195.572" data-parent="shape_VR1KlcONjK"><g data-width="164.349" transform="translate(69.8255, 0)"><path d="M6.99-8.72L6.99-8.72Q6.37-8.72 5.08-8.61L5.08-8.61Q5.00-8.37 5.00-7.75L5.00-7.75L5.00-4.00L5.08-2.83Q5.13-1.67 5.48-1.40L5.48-1.40Q6.08-0.89 8.34-1.13L8.34-1.13Q9.83-1.13 10.76-2.25Q11.69-3.38 11.69-4.86Q11.69-6.34 10.56-7.53Q9.42-8.72 6.99-8.72ZM3.83-17.31L3.83-17.31L7.53-17.33Q9.40-17.33 11.07-16.42L11.07-16.42Q11.96-15.96 12.50-15.07Q13.04-14.18 13.04-13.11Q13.04-12.04 12.45-11.23L12.45-11.23Q11.58-10.04 10.45-9.64L10.45-9.64Q10.31-9.58 10.29-9.54Q10.26-9.50 10.31-9.50L10.31-9.50Q11.34-9.31 12.76-8.02Q14.18-6.72 14.18-4.94L14.18-4.94Q14.18-2.67 12.34-1.34Q10.50 0 7.48 0L7.48 0L3.89 0L0.76 0.03Q0.70-0.03 0.69-0.45Q0.68-0.86 0.76-0.86L0.76-0.86Q1.16-0.86 1.80-0.97Q2.43-1.08 2.51-1.30L2.51-1.30Q2.65-1.75 2.67-2.75L2.67-2.75L2.70-3.75L2.70-13.55L2.67-14.55Q2.65-15.55 2.51-16.01L2.51-16.01Q2.43-16.23 1.77-16.38Q1.11-16.52 0.76-16.52L0.76-16.52Q0.65-16.52 0.65-16.89Q0.65-17.25 0.76-17.36L0.76-17.36Q0.76-17.31 3.83-17.31ZM5.00-10.02Q5.00-9.88 6.13-9.84Q7.26-9.80 8.28-9.91Q9.29-10.02 10.00-10.66Q10.72-11.31 10.72-12.39L10.72-12.39Q10.72-14.20 9.81-15.23Q8.91-16.25 7.13-16.25L7.13-16.25Q5.89-16.25 5.24-16.07L5.24-16.07Q5.08-16.04 5.08-15.82L5.08-15.82L5.00-13.15L5.00-10.02Z" transform="translate(0 105.786) " fill="rgb(255, 255, 255)" stroke="rgb(255, 255, 255)" stroke-width="0.045" data-glyph-w="14.526" data-glyph-h="31.887" data-glyph-ascender="24.786" data-glyph-descender="-7.101"/><path d="M2.54-3.56L2.54-14.20Q2.54-15.66 2.40-16.25L2.40-16.25Q2.29-16.66 1.13-16.66L1.13-16.66L0.70-16.66Q0.68-16.69 0.68-17.00Q0.68-17.31 0.84-17.31L0.84-17.31Q3.32-17.55 4.46-18.31L4.46-18.31L4.54-18.31Q4.64-18.31 4.77-18.14Q4.89-17.98 4.91-17.87L4.91-17.87L4.75-17.17Q4.59-16.50 4.59-15.58L4.59-15.58L4.59-3.56Q4.59-1.92 4.78-1.22L4.78-1.22Q4.83-1.03 5.39-0.82Q5.94-0.62 6.18-0.62L6.18-0.62Q6.26-0.62 6.29-0.34Q6.32-0.05 6.26 0.08L6.26 0.08Q3.62-0.05 3.59-0.05Q3.56-0.05 0.86 0.08L0.86 0.08Q0.76-0.03 0.76-0.32Q0.76-0.62 0.86-0.62L0.86-0.62Q1.16-0.62 1.74-0.82Q2.32-1.03 2.38-1.22L2.38-1.22Q2.54-1.84 2.54-3.56L2.54-3.56Z" transform="translate(14.526 105.786) " fill="rgb(255, 255, 255)" stroke="rgb(255, 255, 255)" stroke-width="0.045" data-glyph-w="6.858" data-glyph-h="31.887" data-glyph-ascender="24.786" data-glyph-descender="-7.101"/><path d="M10.13-5.54Q10.13-7.48 9.18-9.07Q8.23-10.66 6.59-10.66Q4.94-10.66 4.06-9.29Q3.19-7.91 3.19-5.98Q3.19-4.05 4.21-2.44Q5.24-0.84 6.87-0.84Q8.51-0.84 9.31-2.21Q10.13-3.59 10.13-5.54ZM0.92-5.71Q0.92-8.15 2.59-9.90Q4.27-11.64 6.67-11.64Q9.07-11.64 10.73-9.87Q12.39-8.10 12.39-5.68Q12.39-3.27 10.75-1.54Q9.10 0.19 6.70 0.19Q4.29 0.19 2.61-1.54Q0.92-3.27 0.92-5.71Z" transform="translate(21.384 105.786) " fill="rgb(255, 255, 255)" stroke="rgb(255, 255, 255)" stroke-width="0.045" data-glyph-w="13.257" data-glyph-h="31.887" data-glyph-ascender="24.786" data-glyph-descender="-7.101"/><path d="M6.21 4.27Q7.56 4.27 8.56 3.71Q9.56 3.16 9.56 2.09Q9.56 1.03 8.64 0.49Q7.72-0.05 6.63-0.11Q5.54-0.16 4.64-0.32L4.64-0.32L4.43-0.32Q3.73-0.03 3.40 0.27L3.40 0.27Q2.83 0.76 2.83 1.88Q2.83 3.00 3.85 3.63Q4.86 4.27 6.21 4.27ZM5.05-10.66Q4.05-10.66 3.50-9.84Q2.94-9.02 2.94-7.74Q2.94-6.45 3.69-5.45Q4.43-4.46 5.51-4.46L5.51-4.46Q7.34-4.46 7.34-7.29L7.34-7.29Q7.34-8.45 6.70-9.56Q6.05-10.66 5.05-10.66ZM1.00-7.59Q1.00-9.29 2.34-10.46Q3.67-11.64 5.22-11.64Q6.78-11.64 7.80-11.06Q8.83-10.48 9.56-10.48L9.56-10.48L10.99-10.48Q11.10-10.42 11.12-9.95Q11.15-9.48 10.99-9.48L10.99-9.48L9.13-9.48Q9.10-9.48 9.10-9.33Q9.10-9.18 9.22-8.69Q9.34-8.21 9.34-7.91L9.34-7.91Q9.34-6.05 8.30-4.81Q7.26-3.56 5.43-3.56L5.43-3.56Q4.29-3.56 3.98-3.62Q3.67-3.67 3.47-3.58Q3.27-3.48 3.15-3.36Q3.02-3.24 3.02-2.92L3.02-2.92Q3.02-2.67 3.83-2.54Q4.64-2.40 6.18-2.27Q7.72-2.13 8.67-2.00Q9.61-1.86 10.39-1.11Q11.18-0.35 11.18 0.73L11.18 0.73Q11.18 2.86 9.36 4.16Q7.53 5.45 5.13 5.45L5.13 5.45Q3.43 5.45 2.20 4.75Q0.97 4.05 0.97 2.56L0.97 2.56Q0.97 1.84 1.26 1.27Q1.54 0.70 1.82 0.46Q2.11 0.22 2.71-0.15Q3.32-0.51 3.48-0.62L3.48-0.62Q1.11-1.24 1.11-1.89L1.11-1.89Q1.11-2.32 1.42-2.74Q1.73-3.16 2.11-3.42Q2.48-3.67 2.83-3.94L2.83-3.94Q2.13-4.32 1.57-5.39Q1.00-6.45 1.00-7.59L1.00-7.59Z" transform="translate(34.641 105.786) " fill="rgb(255, 255, 255)" stroke="rgb(255, 255, 255)" stroke-width="0.045" data-glyph-w="12.15" data-glyph-h="31.887" data-glyph-ascender="24.786" data-glyph-descender="-7.101"/><path d="M2.97-0.09Q2.51-0.57 2.51-1.19Q2.51-1.81 2.97-2.25Q3.43-2.70 4.05-2.70Q4.67-2.70 5.12-2.25Q5.56-1.81 5.56-1.19Q5.56-0.57 5.12-0.09Q4.67 0.38 4.05 0.38Q3.43 0.38 2.97-0.09Z" transform="translate(46.791 105.786) " fill="rgb(255, 255, 255)" stroke="rgb(255, 255, 255)" stroke-width="0.045" data-glyph-w="8.262" data-glyph-h="31.887" data-glyph-ascender="24.786" data-glyph-descender="-7.101"/><path d="M12.88-9.67L12.88-9.67Q12.93-9.67 12.93-9.77L12.93-9.77L12.93-13.61L12.91-14.63Q12.88-15.69 12.74-16.15L12.74-16.15Q12.66-16.36 12.02-16.55Q11.37-16.74 11.04-16.74L11.04-16.74Q10.94-16.74 10.94-17.04Q10.94-17.33 11.04-17.44L11.04-17.44Q14.09-17.31 14.28-17.31Q14.47-17.31 17.12-17.44L17.12-17.44Q17.17-17.33 17.16-17.04Q17.14-16.74 17.06-16.74L17.06-16.74Q16.82-16.74 16.16-16.54Q15.50-16.34 15.44-16.15L15.44-16.15Q15.34-15.71 15.28-14.69L15.28-14.69L15.23-13.69L15.23-3.67L15.28-2.65Q15.34-1.65 15.44-1.22L15.44-1.22Q15.50-1.03 16.16-0.82Q16.82-0.62 17.06-0.62L17.06-0.62Q17.14-0.62 17.16-0.34Q17.17-0.05 17.12 0.08L17.12 0.08Q14.47-0.05 14.28-0.05Q14.09-0.05 11.04 0.08L11.04 0.08Q10.94-0.03 10.94-0.32Q10.94-0.62 11.04-0.62L11.04-0.62Q11.37-0.62 12.02-0.81Q12.66-1.00 12.74-1.22L12.74-1.22Q12.88-1.67 12.91-2.70L12.91-2.70L12.93-3.75L12.93-8.21L12.88-8.32Q9.02-8.40 4.97-8.32L4.97-8.32Q4.91-8.32 4.91-8.23L4.91-8.23L4.91-3.67L4.97-2.65Q5.02-1.65 5.13-1.22L5.13-1.22Q5.18-1.03 5.85-0.82Q6.51-0.62 6.75-0.62L6.75-0.62Q6.83-0.62 6.84-0.34Q6.86-0.05 6.80 0.08L6.80 0.08Q4.16-0.05 3.96-0.05Q3.75-0.05 0.73 0.08L0.73 0.08Q0.62-0.03 0.62-0.32Q0.62-0.62 0.73-0.62L0.73-0.62Q1.05-0.62 1.70-0.81Q2.35-1.00 2.43-1.22L2.43-1.22Q2.56-1.67 2.59-2.70L2.59-2.70L2.62-3.75L2.62-13.61L2.59-14.63Q2.56-15.69 2.43-16.15L2.43-16.15Q2.35-16.36 1.70-16.55Q1.05-16.74 0.73-16.74L0.73-16.74Q0.62-16.74 0.62-17.04Q0.62-17.33 0.73-17.44L0.73-17.44Q3.78-17.31 3.97-17.31Q4.16-17.31 6.80-17.44L6.80-17.44Q6.86-17.33 6.84-17.04Q6.83-16.74 6.75-16.74L6.75-16.74Q6.51-16.74 5.85-16.54Q5.18-16.34 5.13-16.15L5.13-16.15Q5.02-15.71 4.97-14.69L4.97-14.69L4.91-13.69L4.91-9.75L4.97-9.67Q9.50-9.56 12.88-9.67Z" transform="translate(55.053 105.786) " fill="rgb(255, 255, 255)" stroke="rgb(255, 255, 255)" stroke-width="0.045" data-glyph-w="17.766" data-glyph-h="31.887" data-glyph-ascender="24.786" data-glyph-descender="-7.101"/><path d="M10.04-6.33Q9.91-6.26 9.83-6.26Q9.75-6.26 8.48-6.20Q7.21-6.13 3.29-6.13L3.29-6.13Q3.08-6.13 3.08-5.91L3.08-5.91Q3.08-4.62 3.21-4.21L3.21-4.21Q4.13-1.48 6.99-1.48L6.99-1.48Q8.07-1.48 9.10-2.00L9.10-2.00Q9.56-2.19 10.07-2.70L10.07-2.70Q10.10-2.73 10.14-2.63Q10.18-2.54 10.18-2.54L10.18-2.54Q10.23-2.54 10.19-2.25Q10.15-1.97 10.07-1.86L10.07-1.86Q9.31-1.11 8.64-0.65L8.64-0.65Q7.56 0.11 6.18 0.11L6.18 0.11Q4.00 0.11 2.47-1.36Q0.94-2.83 0.94-5.43Q0.94-8.02 2.35-9.75Q3.75-11.47 5.91-11.47L5.91-11.47Q9.40-11.47 10.13-8.10L10.13-8.10Q10.23-7.34 10.23-7.03Q10.23-6.72 10.21-6.56Q10.18-6.40 10.04-6.33ZM3.32-7.24L3.32-7.24Q7.94-7.24 8.09-7.33Q8.23-7.42 8.13-8.07L8.13-8.07Q7.88-9.07 7.30-9.80Q6.72-10.53 5.94-10.53Q5.16-10.53 4.54-10.04L4.54-10.04Q3.59-9.29 3.27-7.88L3.27-7.88L3.16-7.40Q3.16-7.24 3.32-7.24Z" transform="translate(72.81899999999999 105.786) " fill="rgb(255, 255, 255)" stroke="rgb(255, 255, 255)" stroke-width="0.045" data-glyph-w="11.34" data-glyph-h="31.887" data-glyph-ascender="24.786" data-glyph-descender="-7.101"/><path d="M11.77-9.75L11.77-9.75L6.21 2.40Q5.16 4.62 4.89 5.00L4.89 5.00Q4.24 5.99 3.43 5.99L3.43 5.99Q3.02 5.99 2.70 5.48L2.70 5.48Q2.54 5.24 2.59 4.81Q2.65 4.37 2.83 4.21L2.83 4.21Q3.46 3.78 3.79 3.46Q4.13 3.13 4.44 2.69Q4.75 2.24 6.08-0.49L6.08-0.49Q5.54-1.70 4.81-3.62L4.81-3.62Q3.24-7.61 1.78-10.15L1.78-10.15Q1.43-10.72 0.24-10.72L0.24-10.72Q0.14-10.72 0.14-11.02Q0.14-11.31 0.24-11.42L0.24-11.42Q2.40-11.31 2.96-11.31Q3.51-11.31 5.62-11.42L5.62-11.42Q5.67-11.29 5.66-11.00Q5.64-10.72 5.56-10.72L5.56-10.72Q5.35-10.72 4.82-10.52Q4.29-10.31 4.24-10.13L4.24-10.13Q4.18-10.07 4.46-9.45L4.46-9.45L7.37-3.16L10.07-9.04Q10.45-9.88 10.26-10.11Q10.07-10.34 9.99-10.42L9.99-10.42Q9.50-10.72 8.34-10.72L8.34-10.72Q8.23-10.72 8.23-11.02Q8.23-11.31 8.34-11.42L8.34-11.42Q10.50-11.31 10.96-11.31Q11.42-11.31 13.53-11.42L13.53-11.42Q13.58-11.29 13.57-11.00Q13.55-10.72 13.47-10.72L13.47-10.72Q13.18-10.72 12.58-10.46Q11.99-10.21 11.77-9.75Z" transform="translate(84.15899999999999 105.786) " fill="rgb(255, 255, 255)" stroke="rgb(255, 255, 255)" stroke-width="0.045" data-glyph-w="13.716" data-glyph-h="31.887" data-glyph-ascender="24.786" data-glyph-descender="-7.101"/><path d="M3.08-1.40L3.08-13.80Q3.08-15.50 2.89-16.15L2.89-16.15Q2.81-16.36 2.15-16.55Q1.48-16.74 1.16-16.74L1.16-16.74Q1.05-16.74 1.05-17.04Q1.05-17.33 1.16-17.44L1.16-17.44Q4.21-17.31 4.41-17.31Q4.62-17.31 7.24-17.44L7.24-17.44Q7.29-17.28 7.29-17.02Q7.29-16.77 7.21-16.74L7.21-16.74Q6.97-16.74 6.29-16.54Q5.62-16.34 5.56-16.15L5.56-16.15Q5.37-15.44 5.37-13.80L5.37-13.80L5.37-2.13Q5.37-0.59 4.95 0.70Q4.54 2.00 4.01 2.75Q3.48 3.51 2.73 4.13Q1.97 4.75 1.55 4.97Q1.13 5.18 0.70 5.37L0.70 5.37Q0.65 5.40 0.47 5.28Q0.30 5.16 0.27 5.05L0.27 5.05L0.27 4.81Q3.08 3.05 3.08-1.40L3.08-1.40Z" transform="translate(97.87499999999999 105.786) " fill="rgb(255, 255, 255)" stroke="rgb(255, 255, 255)" stroke-width="0.045" data-glyph-w="7.938" data-glyph-h="31.887" data-glyph-ascender="24.786" data-glyph-descender="-7.101"/><path d="M6.64-2.65L6.64-2.65L6.64-5.35Q6.40-5.24 5.60-4.98Q4.81-4.72 4.33-4.52Q3.86-4.32 3.43-3.86Q3.00-3.40 3.00-2.75Q3.00-2.11 3.46-1.71Q3.92-1.32 4.63-1.32Q5.35-1.32 5.99-1.75Q6.64-2.19 6.64-2.65ZM8.64-8.78L8.64-2.46Q8.64-1.92 8.94-1.51Q9.23-1.11 9.64-1.11Q10.04-1.11 10.37-1.30L10.37-1.30L10.66-1.48Q10.80-1.46 10.64-0.76L10.64-0.76Q9.42 0.16 8.80 0.16Q8.18 0.16 7.63-0.35Q7.07-0.86 6.86-1.40L6.86-1.40Q6.83-1.43 6.48-1.13Q6.13-0.84 5.86-0.63Q5.59-0.43 4.90-0.12Q4.21 0.19 3.59 0.19L3.59 0.19Q2.38 0.19 1.58-0.46Q0.78-1.11 0.78-2.40L0.78-2.40Q0.78-4.35 4.02-5.51L4.02-5.51L6.40-6.34Q6.64-6.43 6.64-6.75L6.64-6.75L6.64-8.96Q6.64-9.64 6.10-10.07Q5.56-10.50 4.81-10.50Q4.05-10.50 3.52-9.96Q3.00-9.42 3.00-8.53L3.00-8.53Q3.00-7.70 1.73-7.70L1.73-7.70Q0.89-7.70 0.89-8.13L0.89-8.13Q0.89-9.29 2.50-10.39Q4.10-11.50 5.75-11.50Q7.40-11.50 8.02-10.85Q8.64-10.21 8.64-8.78L8.64-8.78Z" transform="translate(105.81299999999999 105.786) " fill="rgb(255, 255, 255)" stroke="rgb(255, 255, 255)" stroke-width="0.045" data-glyph-w="11.205" data-glyph-h="31.887" data-glyph-ascender="24.786" data-glyph-descender="-7.101"/><path d="M11.77-9.75L11.77-9.75L6.21 2.40Q5.16 4.62 4.89 5.00L4.89 5.00Q4.24 5.99 3.43 5.99L3.43 5.99Q3.02 5.99 2.70 5.48L2.70 5.48Q2.54 5.24 2.59 4.81Q2.65 4.37 2.83 4.21L2.83 4.21Q3.46 3.78 3.79 3.46Q4.13 3.13 4.44 2.69Q4.75 2.24 6.08-0.49L6.08-0.49Q5.54-1.70 4.81-3.62L4.81-3.62Q3.24-7.61 1.78-10.15L1.78-10.15Q1.43-10.72 0.24-10.72L0.24-10.72Q0.14-10.72 0.14-11.02Q0.14-11.31 0.24-11.42L0.24-11.42Q2.40-11.31 2.96-11.31Q3.51-11.31 5.62-11.42L5.62-11.42Q5.67-11.29 5.66-11.00Q5.64-10.72 5.56-10.72L5.56-10.72Q5.35-10.72 4.82-10.52Q4.29-10.31 4.24-10.13L4.24-10.13Q4.18-10.07 4.46-9.45L4.46-9.45L7.37-3.16L10.07-9.04Q10.45-9.88 10.26-10.11Q10.07-10.34 9.99-10.42L9.99-10.42Q9.50-10.72 8.34-10.72L8.34-10.72Q8.23-10.72 8.23-11.02Q8.23-11.31 8.34-11.42L8.34-11.42Q10.50-11.31 10.96-11.31Q11.42-11.31 13.53-11.42L13.53-11.42Q13.58-11.29 13.57-11.00Q13.55-10.72 13.47-10.72L13.47-10.72Q13.18-10.72 12.58-10.46Q11.99-10.21 11.77-9.75Z" transform="translate(117.01799999999999 105.786) " fill="rgb(255, 255, 255)" stroke="rgb(255, 255, 255)" stroke-width="0.045" data-glyph-w="13.716" data-glyph-h="31.887" data-glyph-ascender="24.786" data-glyph-descender="-7.101"/><path d="M2.97-0.09Q2.51-0.57 2.51-1.19Q2.51-1.81 2.97-2.25Q3.43-2.70 4.05-2.70Q4.67-2.70 5.12-2.25Q5.56-1.81 5.56-1.19Q5.56-0.57 5.12-0.09Q4.67 0.38 4.05 0.38Q3.43 0.38 2.97-0.09Z" transform="translate(130.73399999999998 105.786) " fill="rgb(255, 255, 255)" stroke="rgb(255, 255, 255)" stroke-width="0.045" data-glyph-w="8.262" data-glyph-h="31.887" data-glyph-ascender="24.786" data-glyph-descender="-7.101"/><path d="M9.83-2.13L10.07-2.43Q10.26-2.43 10.31-2.38Q10.37-2.32 10.44-2.12Q10.50-1.92 10.42-1.70L10.42-1.70Q9.72-1.00 9.29-0.73L9.29-0.73Q7.88 0.14 6.34 0.14L6.34 0.14Q4.16 0.14 2.56-1.48Q0.97-3.10 0.97-5.45Q0.97-7.80 2.56-9.64Q4.16-11.47 6.24-11.47Q8.32-11.47 9.42-10.91L9.42-10.91Q11.04-10.21 10.13-9.10L10.13-9.10Q9.77-8.69 9.29-8.69Q8.80-8.69 8.21-9.45L8.21-9.45Q7.45-10.45 6.14-10.45Q4.83-10.45 4.01-9.17Q3.19-7.88 3.16-5.99Q3.13-4.10 4.20-2.67Q5.26-1.24 7.64-1.24L7.64-1.24Q8.37-1.24 8.98-1.54Q9.58-1.84 9.83-2.13L9.83-2.13Z" transform="translate(138.99599999999998 105.786) " fill="rgb(255, 255, 255)" stroke="rgb(255, 255, 255)" stroke-width="0.045" data-glyph-w="11.556" data-glyph-h="31.887" data-glyph-ascender="24.786" data-glyph-descender="-7.101"/><path d="M4.40-11.42L4.40-11.42L4.54-11.50Q4.67-11.50 4.64-11.10L4.64-11.10Q4.64-10.58 4.56-10.13L4.56-10.13L4.56-9.99L4.67-9.94Q6.37-11.56 7.96-11.56L7.96-11.56Q9.07-11.56 9.86-11.07Q10.64-10.58 11.02-9.77L11.02-9.77Q11.66-8.26 11.66-6.62L11.66-6.62L11.66-3.56Q11.66-1.81 11.83-1.22L11.83-1.22Q11.88-1.03 12.45-0.82Q13.01-0.62 13.26-0.62L13.26-0.62Q13.34-0.62 13.35-0.34Q13.37-0.05 13.31 0.08L13.31 0.08L10.69-0.05Q10.64-0.05 7.94 0.08L7.94 0.08Q7.83-0.03 7.83-0.32Q7.83-0.62 7.94-0.62L7.94-0.62Q8.23-0.62 8.80-0.82Q9.37-1.03 9.42-1.22L9.42-1.22Q9.61-1.92 9.61-3.56L9.61-3.56L9.61-5.99Q9.61-8.02 8.96-8.90Q8.32-9.77 7.05-9.77L7.05-9.77Q6.34-9.77 5.68-9.42Q5.02-9.07 4.78-8.83L4.78-8.83Q4.59-8.72 4.54-8.59L4.54-8.59L4.54-3.56Q4.54-2.02 4.75-1.22L4.75-1.22Q4.81-1.03 5.37-0.82Q5.94-0.62 6.16-0.62L6.16-0.62Q6.24-0.62 6.25-0.34Q6.26-0.05 6.21 0.08L6.21 0.08L3.59-0.05Q3.48-0.05 0.78 0.08L0.78 0.08Q0.68-0.03 0.68-0.32Q0.68-0.62 0.78-0.62L0.78-0.62Q1.08-0.62 1.67-0.82Q2.27-1.03 2.32-1.22L2.32-1.22Q2.51-1.92 2.51-3.56L2.51-3.56L2.51-8.32Q2.51-8.94 2.40-9.17Q2.29-9.40 2.15-9.57Q2.00-9.75 1.75-9.88L1.75-9.88Q1.35-10.07 0.70-10.13L0.70-10.13Q0.59-10.18 0.59-10.44Q0.59-10.69 0.78-10.72L0.78-10.72Q3.67-11.18 4.40-11.42Z" transform="translate(150.552 105.786) " fill="rgb(255, 255, 255)" stroke="rgb(255, 255, 255)" stroke-width="0.045" data-glyph-w="13.797" data-glyph-h="31.887" data-glyph-ascender="24.786" data-glyph-descender="-7.101"/></g></svg></g></g></svg>
